/* XPM */
static char *enermy1706890857[] = {
/* columns rows colors chars-per-pixel */
"32 32 165 2 ",
"   c None",
".  c #050808",
"X  c #0C0F0E",
"o  c #0C100F",
"O  c #100A1A",
"+  c #0D1010",
"@  c #141C1C",
"#  c #171F21",
"$  c #1E1827",
"%  c #231E2D",
"&  c #172223",
"*  c #1A2324",
"=  c #1B2628",
"-  c #1D282B",
";  c #27212F",
":  c #272231",
">  c #2A2433",
",  c #202F32",
"<  c #2F2A38",
"1  c #332E3C",
"2  c #233336",
"3  c #26363A",
"4  c #27383D",
"5  c #2A3D42",
"6  c #3D3744",
"7  c #413D49",
"8  c #2D4147",
"9  c #2F454B",
"0  c #30474D",
"q  c #2F4951",
"w  c #334C53",
"e  c #375057",
"r  c #36525A",
"t  c #3A565E",
"y  c #365761",
"u  c #3D5A63",
"i  c #3C5E68",
"p  c #3F616D",
"a  c #4B4651",
"s  c #57525C",
"d  c #405E68",
"f  c #41626C",
"g  c #436672",
"h  c #466A75",
"j  c #456C79",
"k  c #486D78",
"l  c #747079",
"z  c #517E8C",
"x  c #7D7A83",
"c  c #55808F",
"v  c #548494",
"b  c #5A8896",
"n  c #57899A",
"m  c #598B9C",
"M  c #5C90A2",
"N  c #6397A9",
"B  c #669AAB",
"V  c #699DAF",
"C  c #6694A3",
"Z  c #6DA3B5",
"A  c #6CA6BA",
"S  c #6FA8BC",
"D  c #66A1B4",
"F  c #71ABBF",
"G  c #6DABC1",
"H  c #73AEC2",
"J  c #7CB2C4",
"K  c #76B5CB",
"L  c #7AB6CB",
"P  c #77B9CF",
"I  c #7EB9CD",
"U  c #77BBD4",
"Y  c #7BBDD4",
"T  c #7ABFD8",
"R  c #7EC0D7",
"E  c #7DC1DA",
"W  c #7EC7E0",
"Q  c #7EC8E2",
"!  c #89878E",
"~  c #8F8C94",
"^  c #8D9A9E",
"/  c #929D9F",
"(  c #999E9F",
")  c #97959B",
"_  c #939FA2",
"`  c #9F9CA3",
"'  c #A19FA5",
"]  c #8EA1A7",
"[  c #8DA7AE",
"{  c #83A2AB",
"}  c #94A1A5",
"|  c #9BA3A5",
" . c #95A6AB",
".. c #9AA6A9",
"X. c #95A8AE",
"o. c #9EA9AC",
"O. c #87ABB6",
"+. c #8CABB6",
"@. c #83AEBC",
"#. c #8BAEB9",
"$. c #85A5B0",
"%. c #92ABB4",
"&. c #9BADB1",
"*. c #8AB1BD",
"=. c #9EB0B4",
"-. c #94B3BD",
";. c #9AB5BE",
":. c #A0A5A5",
">. c #A3AAAB",
",. c #ACAAAF",
"<. c #A5AEB1",
"1. c #A9AFB0",
"2. c #A6B1B4",
"3. c #ABB3B5",
"4. c #A2B5BB",
"5. c #ACB6B9",
"6. c #B0B7B8",
"7. c #B8B6BB",
"8. c #B3BBBC",
"9. c #B9BEBF",
"0. c #B4B2B7",
"q. c #84B4C4",
"w. c #8EB4C1",
"e. c #84BACC",
"r. c #8BBDCE",
"t. c #97B7C2",
"y. c #99B9C4",
"u. c #82BDD0",
"i. c #8CBFD1",
"p. c #BCBEC1",
"a. c #87C0D3",
"s. c #83C5DC",
"d. c #8AC6DA",
"f. c #8AC9DF",
"g. c #93C8DA",
"h. c #BAC2C4",
"j. c #BDC7CA",
"k. c #82C7E0",
"l. c #83CAE3",
"z. c #8CCDE3",
"x. c #85CFE9",
"c. c #C0C7C9",
"v. c #C8C7CB",
"b. c #C5CBCD",
"n. c #C9CED0",
"m. c #CCD2D3",
"M. c #D1D4D5",
"N. c #D3D7D8",
"B. c #D8D7DA",
"V. c #D4D9DA",
"C. c #DCDCDD",
"Z. c #DBDFE0",
"A. c #DEE2E3",
"S. c #E3E5E5",
"D. c #E6E7E8",
"F. c #E8E7E8",
"G. c #E6EAEA",
"H. c #EAECED",
"J. c #F3F1EF",
"K. c #EEEFF0",
"L. c #F0EFF1",
"P. c #EFF2F2",
"I. c #F5F6F6",
"U. c #F6F7F8",
"Y. c #FFFFFF",
/* pixels */
"                    9 8                                         ",
"                  @ Y F +                                       ",
"                    8 5     -                                   ",
"                          b R t                                 ",
"                      & C k.R R h         d                     ",
"                    @ B s.P #.a.A o   X m H @                   ",
"          5         e R U q.:.e.G 3 * M z.Z X                   ",
"        k F @     @ H E J  .| +.l.z i g.>.L i                   ",
"      # S k.v     @ A e. .o.2.| t.v g -.( -.s.h                 ",
"      z s.q.Q n 8 @ V &.>.S.Y.c.} J $.3.h.| X.s.z               ",
"      z d.X.%.r.Q b { } c.Y.Y.Y.n.^ 8.I.Y.N.|  .d.m @           ",
"    X b l...| ..q.s. .2.P.Y.Y.Y.H.h.I.I.j.H.Z.| O.l.N #         ",
"      t Y &.| | | .. .m.Y.Y.Y.Y.Y.Y.Y.j.Z 4.Y.D.<.w.H @   4 2   ",
"        w #...h.h.^ <.Y.Y.Y.Y.Y.Y.Y.Y.h.Z 4.U.Y.n._ L g , P t   ",
"        X Z  .m.U.h.S.Y.Y.Y.Y.Y.Y.Y.Y.b.&.G.Y.Y.n._ I z f z.S 2 ",
"        q K } b.Y.Y.Y.Y.Y.Y.Y.Y.Y.Y.Y.Y.Y.Y.Y.P.8...A j %.w.Q 5 ",
"      u E -./ n.Y.I.m.I.Y.Y.Y.Y.Y.Y.Y.Y.Y.Y.Y.N.^ } %.;.>.*.Y 4 ",
"    h E e.} 3.U.Y.n.^ c.Y.Y.Y.G.Y.Y.Y.Y.Y.Y.Y.m...5.S.J.b.r.f   ",
"  w l.R +.| m.Y.Y.I.N.U.Y.Y.p.a ,.Y.Y.Y.Y.Y.Y.A.S.Y.Y.M.-.A 2   ",
"  e E P  .3.Y.Y.Y.Y.Y.Y.L.Y.l O s U.K.Y.Y.Y.Y.Y.Y.Y.c.&.C *     ",
"3 H E #.o.H.Y.Y.Y.Y.Y.0.7 ) C.x M.,.6 ' I.Y.Y.Y.Y.H.o.#.P g     ",
"5 R U +.:.U.Y.Y.Y.Y.F.1 : $ 7.Y.B.: % % v.Y.Y.Y.Y.6.] P U l.e   ",
"5 R T +.:.Y.Y.Y.Y.Y.U.' < x D.Y.I.~ > ! H.Y.Y.U.Y.G.2.O.P k.r   ",
"2 Z T +.:.G.D.b.A.U.Y.Y.D.Y.Y.Y.Y.Y.F.Y.Y.D.m.V.Y.P.,. .Y K 9   ",
"  e x.q.} 3.Y.G.h.b.n.n.m.m.m.n.m.m.m.m.n.j.N.Y.Y.8.} @.l.h     ",
"  # c Q %.| b.Y.Y.S.V.V.V.V.V.V.V.V.V.V.V.Y.Y.Y.V...@.Q B =     ",
"      h s.%.( j.H.H.Y.Y.Y.Y.Y.Y.Y.Y.Y.Y.Y.H.G.m.} J T s.d       ",
"        f R t.| ( ..b.A.Y.Y.Y.Y.Y.Y.H.N.m.o.(  .e.E R f         ",
"          e K e.y.o.} | p.p.p.p.9.p.2./ } X.i.u.U g 5           ",
"            @ y B P f.;.{ [ [ [ [ [ X.;.f.u.D f @               ",
"                . t j c E E R E T E Q m h f o                   ",
"                        q q 9 9 9 9 w #                         "
};
