/* XPM */
static char *exit1706890858[] = {
/* columns rows colors chars-per-pixel */
"32 32 102 2 ",
"   c None",
".  c #7C3C2E",
"X  c #7A3F31",
"o  c #763E38",
"O  c #6E473E",
"+  c #754237",
"@  c #7B4032",
"#  c #774F37",
"$  c #7A4E35",
"%  c #754339",
"&  c #7C443A",
"*  c #7C4D3B",
"=  c #7B5037",
"-  c #7A5239",
";  c #7E5B3C",
":  c #5C5957",
">  c #5A5B5B",
",  c #6E4A40",
"<  c #734C42",
"1  c #7A4E43",
"2  c #64534E",
"3  c #6A534A",
"4  c #6D584E",
"5  c #71574F",
"6  c #70594F",
"7  c #7C5C4E",
"8  c #645550",
"9  c #625854",
"0  c #635E58",
"q  c #7E5E51",
"w  c #5A655C",
"e  c #74644D",
"r  c #7D694D",
"t  c #646253",
"y  c #7A6356",
"u  c #7E6758",
"i  c #576161",
"p  c #5C6860",
"a  c #526D6F",
"s  c #536F70",
"d  c #616D63",
"f  c #824534",
"g  c #81463C",
"h  c #844A3D",
"j  c #884C3E",
"k  c #84523F",
"l  c #825C3D",
"z  c #8C653F",
"x  c #844E42",
"c  c #8C4F41",
"v  c #875540",
"b  c #8D5141",
"n  c #855C40",
"m  c #8A5D41",
"M  c #805B4D",
"N  c #925342",
"B  c #876141",
"V  c #8C6541",
"C  c #8E6943",
"Z  c #8B6D48",
"A  c #906543",
"S  c #946D42",
"D  c #996E42",
"F  c #967144",
"G  c #9B7544",
"H  c #94724C",
"J  c #9F7A4D",
"K  c #856F51",
"L  c #816758",
"P  c #846B5B",
"I  c #867051",
"U  c #8D7150",
"Y  c #86705F",
"T  c #8C725F",
"R  c #967651",
"E  c #9A7C55",
"W  c #9B7E59",
"Q  c #A07945",
"!  c #8E7562",
"~  c #907661",
"^  c #957A63",
"/  c #9D825A",
"(  c #A3855D",
")  c #AA8C5D",
"_  c #9F8760",
"`  c #A58C62",
"'  c #AA8D64",
"]  c #AD9165",
"[  c #AE9668",
"{  c #B19566",
"}  c #B3956A",
"|  c #B49B6B",
" . c #BB9C6E",
".. c #BE9F70",
"X. c #BAA16F",
"o. c #BDA471",
"O. c #BFA873",
"+. c #C2A373",
"@. c #C3AC75",
"#. c #C6AF78",
"$. c #C7B179",
"%. c #C9B37A",
/* pixels */
"                            n S V n                             ",
"                            l Q Q n                             ",
"                          g m G G m c                           ",
"                      + & x m G Q n b & % T ^ T ~ ~             ",
"                    & N h g m G G n o g x ~ P 4 y ^             ",
"                  o b c h N B G G m & + x ~ ^ Y ~ ^             ",
"                & & h g & h n G Q n & & & q ! ! ! u             ",
"              & g & & h & & m G G m c h g 1 L P L 5             ",
"            h & & & & h & & n G G m N g h h 1 L ! 7             ",
"        o h g & c j & h & & n G Q l g h h g j v 7 q j o         ",
"      & g g & j N g c b & h m G G m g h j N g N h < h h &       ",
"    & h & x b g h & c h & j B Q Q B h & h j & g & & & g N &     ",
"  + & & & N h & & & g j j S V V V z S h g & h h & & & & h & %   ",
"  + & & & & g & & & c m F C H ' ` R z F b g & h & j & & j & &   ",
"  & & & & h x & g g m F z E { ` ) [ E C F l h h & N b & h & +   ",
"  N & j h h & & h m F z ( { J D F J { ( V F B b h j b h j & g   ",
"  j j N h & & & A F V ( { F Z r r Z F { ( V S A & h & j N x &   ",
"  & j j & j j S F A ' @.) l p p w d l ) @.' C S V x g & b j g   ",
"& j & g & k S z C ] X.+.( ; t t t t - ` +.+.] C S S h o & & j & ",
"& h & h k S A H | O.@.X.+.] I e e I ] +.o.o.O.| H S F - & & h & ",
"% & & l F A R X.#.@.@.$.#.{ ) J E ) { #.#.@.@.#.o.R V F k o g + ",
"& j l G V W | +. .| +.' H F F G G z F F ' X. . ... .W V G l h & ",
"& A G V W +.+.+.+.+. .S S l - - - = l z F  .+.+.+.+.o.W V F A & ",
"* S V ' ' .... . . .( C - @ X X @ . @ - z ( .. . . ...] ' V S - ",
"    U  .] +.+.+.+.@.W l $ + > : : > + $ ; ( +.+.+.+.+.] ..U     ",
"      / ] .. ...o.o.W l $ , s 0 9 s , $ ; W +... . .o.] /       ",
"      [ | o.@.@.@.$./ ; $ + i 8 2 i O $ ; W $.@.@.#.o.| [       ",
"      ` ` | o.O.o.O./ z $ 5 3 % % < & $ ; W @.o...o.| ` `       ",
"        | ] ....o.+.W l $ 5 + . @ . . # ; / o.....o.] }         ",
"        ] ' ......+.W l - . X @ @ @ @ # ; E o.....+.' ]         ",
"        ` [ ..O.+.@.W ; $ f f f f f f # z / @.O.@...] `         ",
"        _ ` O.$.#.%./ ; # X @ @ @ @ @ # 1 / #.#.#.o.` _         "
};
