/* XPM */
static char *exit1707224614[] = {
/* columns rows colors chars-per-pixel */
"32 32 116 2 ",
"   c #171517",
".  c #16181C",
"X  c #1B1A1D",
"o  c #201D1F",
"O  c #1D1D20",
"+  c #211F20",
"@  c #242122",
"#  c #292422",
"$  c #2E2927",
"%  c #2D2A29",
"&  c #342924",
"*  c #3C2C23",
"=  c #322D2B",
"-  c #402E23",
";  c #443326",
":  c #4B3525",
">  c #4C3827",
",  c #4A3728",
"<  c #4C392A",
"1  c #543621",
"2  c #5C3C24",
"3  c #513C29",
"4  c #413A32",
"5  c #483E32",
"6  c #413C38",
"7  c #623E23",
"8  c #4F4333",
"9  c #46403B",
"0  c #4A443C",
"q  c #574A36",
"w  c #534A39",
"e  c #5E513D",
"r  c #674227",
"t  c #6D4222",
"y  c #654328",
"u  c #6A4A2C",
"i  c #734522",
"p  c #7B4720",
"a  c #7D4922",
"s  c #754C2B",
"d  c #7B4D2A",
"f  c #75502E",
"g  c #7C512D",
"h  c #69573A",
"j  c #6C593C",
"k  c #7F5D3D",
"l  c #4D4640",
"z  c #544B41",
"x  c #685B48",
"c  c #76664A",
"v  c #79684C",
"b  c #706451",
"n  c #824D24",
"m  c #81512A",
"M  c #8C562A",
"N  c #8F582B",
"B  c #91592B",
"V  c #815933",
"C  c #8D5B33",
"Z  c #8E5F38",
"A  c #905C31",
"S  c #956333",
"D  c #9B6431",
"F  c #90623C",
"G  c #9D6B3C",
"H  c #A56D36",
"J  c #A86E36",
"K  c #A46E39",
"L  c #AB7036",
"P  c #A5703B",
"I  c #AA7139",
"U  c #B27437",
"Y  c #9F6F41",
"T  c #827049",
"R  c #867351",
"E  c #897754",
"W  c #8B7956",
"Q  c #82735C",
"!  c #8C7B5B",
"~  c #A27243",
"^  c #94815D",
"/  c #A0885A",
"(  c #A88D58",
")  c #B1945F",
"_  c #9C8963",
"`  c #A88E61",
"'  c #AB9163",
"]  c #B59865",
"[  c #BCA26D",
"{  c #CCAB6B",
"}  c #C4A770",
"|  c #CBB67E",
" . c #E5BB6E",
".. c #EABE6E",
"X. c #E4BD77",
"o. c #E8BE70",
"O. c #EDC26E",
"+. c #F0C26F",
"@. c #EEC371",
"#. c #E7C17C",
"$. c #EFCC7A",
"%. c #F1C471",
"&. c #F3C976",
"*. c #F0C779",
"=. c #F4CC7A",
"-. c #F4D17F",
";. c #F8D17D",
":. c #D2B986",
">. c #E8C680",
",. c #EBC880",
"<. c #E1CB8D",
"1. c #F9D682",
"2. c #F7D788",
"3. c #F7DD8A",
"4. c #FDE08C",
"5. c #FFE692",
/* pixels */
"O.@.+.@.O.O.%.O.@.@.O.O.@.@.{ v c } @.@.%.@.@.O.O.%.%.%.%.%.@.O.",
"O.%.%.%.%.%.+.%.@.@.#.>.! z 6 X . = z b X.#.#.&.&.=.5.=.1.;.+.O.",
"@.%.%.%.%.=.;.*.-.^ $ = O . X < 3 + . X = # x 2.2.*.;...=.=.%.@.",
"O.%.%.%.+.;.[ 9 0 = + + ; 2 y K I s r 2 + + $ l 5 _ =.&.;.&.%.O.",
"%.%.%.%.%.+.( X . : g a a a N I P H B B i i 1 . X T =.%.1.&.+.O.",
"@.%.%.%.X.j w ; g m B B a p M H J A M B n n p d 3 4 h <.=.+.%.+.",
"@.%.%.%.#.@ O < U B N M a a M H J D B B n p n J u .   :.%.+.%.O.",
"O.%.%.[ _ # , f J N N M a p M H J A M B n p p H V 3 # _ ] 2.4.%.",
"@.+.%.9   # H L H N C M a p M H H D N B n p a G P L ;   @ ,.&.@.",
"%.&.X.0 X * D H H C C M a p M H H D M N n a a G P J : O % <.&.@.",
"%.1.z # # i D J Y C M M p p M J H D N N n d g ~ ~ G M * + 4  .@.",
"@.%.8 o # i D ~ G N N M p p M H H D N B a a a G P H B * O $ o.@.",
"@._ $ @ 7 a S P H B N M a p M J H B N N n a a D J G B d # @ Q @.",
"@.8 + # p a D J H B M M a p N H H D N B n p a G J H B N * X 6 @.",
"@.x X # i a D J H N N M a p M H J D M B n p a D J D B M & O l *.",
"O.q @ # i a D J H N N M a p M H H D M N n a n D J H N M & . l @.",
"O.q + # i a D J H B N M a p M H H D M B n a d H L J B M & X 0 @.",
"@.e + # i p D J H B N M a a M H H S M N n a a B S S C M & + = 3.",
"@.e + # i a D L H N N M a a M H J A M B n a a * @ & M M & + 0 -.",
"O.e @ # i a D H H N N N a i M H J D N B n a a # O # M M & + 4 -.",
"@.e @ # i a D H G C N M a p M H J D B B n p p m k k N M & + 4 -.",
"O.e @ # i a D P P Z C M p p M H H D M B n p d K I H N M & X 4  .",
"O.e + # i a D P P F C M p p M J H D M M n p d G P H N N = @ * @.",
"O.e + # i a D P G C N M p p M H H D M M n d d D H H N M & # = @.",
"@.e + # i n D J H M M M p p M H H D M N n a a H H H N M & + = @.",
"O.e + # t a D J H B B M a p M K H D N B n a a D H D N M & + 4 O.",
"@.e + # i a D H H B M M a p M J H D N N n p n D H H N M & + 4 $.",
"@.e + # i a D H H B B M a p M J H D N N n a a D I H N M & + 4 3.",
"O.e + # i n D L J B B B n a N I J D B B n n n H L J B N & + * $.",
"@.w X @ * ; , < < ; , ; - * ; < , : ; ; ; * * > < , , ; # X = 2.",
"%.| ' 8 X X X X X X X O X X X X X X X X X X X X X X X X $ ` [ $.",
"@.@.O.) E W E R R E E T W W W W W W W W E T ^ W W R E W / O.O.O."
};
