/* XPM */
static char *floor1706890858[] = {
/* columns rows colors chars-per-pixel */
"32 32 40 1 ",
"  c #EFBF6C",
". c #ECC36E",
"X c #F0C26F",
"o c #EEC370",
"O c #EFC471",
"+ c #F0C370",
"@ c #F1C471",
"# c #F2C471",
"$ c #F2C572",
"% c #F2C774",
"& c #F3C875",
"* c #F3C976",
"= c #F4CA76",
"- c #F4CA77",
"; c #F5CB78",
": c #F5CC78",
"> c #F5CD79",
", c #F7CE7B",
"< c #F6CF7C",
"1 c #F7D07C",
"2 c #F7D07D",
"3 c #F7D17D",
"4 c #F8D17E",
"5 c #F8D47F",
"6 c #F7D480",
"7 c #F8D380",
"8 c #F9D481",
"9 c #FAD683",
"0 c #FAD784",
"q c #FBD884",
"w c #FAD885",
"e c #FCDA86",
"r c #FBDE89",
"t c #FDDC88",
"y c #FEDE8A",
"u c #FFDF8B",
"i c #FCE18B",
"p c #FDE08C",
"a c #FDE28E",
"s c #FFE692",
/* pixels */
".oooooooooooOoooooooooo.oo%OOOO.",
"o@@@@+X@X+@>%+@@@@@@@@@;*;s>03oo",
"o@@@+>3@3*;y;X@@@@@@@@+00@4 <;+o",
"o@@@X4w@93 +6*+@@@@@@@@X+9==9%+o",
"+@@@@X>9@0>9u&+@@@@@@@@@+8>@9=X.",
"o@@@@Xp4@<=%;+@@@@@@@@@@%3*y*.++",
"o@@@@@=@w%y4++@@@@@@@@@@%y@>*o++",
"o@@@@@+@%+*%++@@@@@@@@@@@%XXX9p@",
"o+@@+$+$+$+#@@@@+$+$+$+$@@@@@=%O",
"@=+@$+$+$+$+@@@@$+$+$+$+@@@X4p*.",
"@9+++$+$+$+$@@@@+$+$+$+#@@@@+X+o",
"O+@@$+$+$+$+@@@@$+$+$+#+@+X@+@@o",
"o@+$+$+$+$#++++++$+$$+$+X=3+@@@o",
"o@++$+$+$+++2y=+$+$++++e9>y.+@@o",
"o++.+$+$+$+#&;+++$+$+++>=X*>4+@o",
".=p9++$+$+#+X8u%$+$+.0u+t9=p4+@o",
"o@@%@@@@++=+@%@@++#+Xe=$=$$+$+$+",
"o@+@@@@@+;u,04+@$++$X$#ee>tX+$=p",
"o@@@@@@@@@++4;@@#4>+$+$+X=4+@@q4",
"o@@@@@@@@@@+++@@+q2X+$X++X++@@>4",
"o@@@@@@@@@@@@@@@q2.++$+$$XXX@.43",
"o@@@@@@@@@@@@@@@4;@@$+$++@.X@@X.",
"o@@@@@@@@@@@@@@@XX@@+$+$+;y9X@XO",
"o@@@@@@@@@@@@@@@+@@@$+$++$**@@@.",
"o@@@@@@@@@@@@@@@@@@@@@@@+$++$+$+",
"o@@@@@@@@@@@@@++@@@@@@@@$+$++$++",
"o@@@@@@@@@@@@@@+@@@@@@@@+$+$+%+;",
"o@@@@@@@@@@@@@++@@@@@@@@+ +++++p",
"o+@@@@@@@@@@+.90@@@@@@@@004+++ ;",
"+0+@@@@@@@@@+.:>o@@@@@@@<>=+%+90",
"&y++@@@@@@+o4y*0e+@@@@@@+yy3o+=;",
".+oooooooooo+=OO%ooOooooOO%ooo.."
};
