/* XPM */
static char *item1706890858[] = {
/* columns rows colors chars-per-pixel */
"32 32 152 2 ",
"   c None",
".  c #000013",
"X  c #000015",
"o  c #000216",
"O  c #030918",
"+  c #070D18",
"@  c #0B1119",
"#  c #0B111A",
"$  c #0C1219",
"%  c #0D131A",
"&  c #0D1419",
"*  c #0E141A",
"=  c #10161A",
"-  c #131A1A",
";  c #131A1B",
":  c #141B1B",
">  c #151C1B",
",  c #161D1B",
"<  c #181F1C",
"1  c #1B211C",
"2  c #1B221C",
"3  c #1E251D",
"4  c #252D1E",
"5  c #262E1E",
"6  c #272F1F",
"7  c #28301F",
"8  c #2D311F",
"9  c #2C3420",
"0  c #2D3620",
"q  c #2F3721",
"w  c #2F3821",
"e  c #303821",
"r  c #313A21",
"t  c #323A21",
"y  c #323B21",
"u  c #333B21",
"i  c #343D22",
"p  c #353E22",
"a  c #363E22",
"s  c #384022",
"d  c #3D4623",
"f  c #485225",
"g  c #495326",
"h  c #4B5526",
"j  c #4D5727",
"k  c #555F28",
"l  c #556028",
"z  c #566028",
"x  c #566128",
"c  c #5C662A",
"v  c #5D672A",
"b  c #5D682A",
"n  c #5E692A",
"m  c #616C2B",
"M  c #626D2B",
"N  c #646F2B",
"B  c #65702B",
"V  c #69742C",
"C  c #6A762C",
"Z  c #717C2E",
"A  c #75812F",
"S  c #77832F",
"D  c #78852F",
"F  c #79862F",
"G  c #7D8930",
"H  c #7E8A30",
"J  c #7F8A31",
"K  c #7F8C30",
"L  c #859232",
"P  c #879432",
"I  c #889432",
"U  c #889533",
"Y  c #899633",
"T  c #8A9733",
"R  c #8B9933",
"E  c #919F34",
"W  c #929F34",
"Q  c #93A035",
"!  c #97A536",
"~  c #98A635",
"^  c #98A536",
"/  c #99A736",
"(  c #9BA936",
")  c #9CAB37",
"_  c #9DAC37",
"`  c #9FAD37",
"'  c #A0AE37",
"]  c #A0AF37",
"[  c #A2B038",
"{  c #A2B138",
"}  c #A3B238",
"|  c #A4B338",
" . c #A5B438",
".. c #A6B539",
"X. c #A8B639",
"o. c #AAB939",
"O. c #ABB939",
"+. c #AAB93A",
"@. c #ABBA3A",
"#. c #ACBB39",
"$. c #ACBA3A",
"%. c #ACBB3A",
"&. c #ADBC3A",
"*. c #ADBD3A",
"=. c #AEBD3A",
"-. c #AFBD3A",
";. c #AEBE3A",
":. c #AFBE3A",
">. c #AFBF3A",
",. c #AFBE3B",
"<. c #B0BF3A",
"1. c #B0BF3B",
"2. c #B0C03B",
"3. c #B1C03B",
"4. c #B2C13B",
"5. c #B2C23B",
"6. c #B3C23B",
"7. c #B3C33B",
"8. c #B4C33B",
"9. c #B4C43B",
"0. c #B5C53B",
"q. c #B5C43C",
"w. c #B5C53C",
"e. c #B6C53C",
"r. c #B6C63C",
"t. c #B7C73C",
"y. c #B8C73C",
"u. c #B8C83C",
"i. c #B9C83C",
"p. c #B9C93C",
"a. c #BACA3C",
"s. c #BBCA3C",
"d. c #BACA3D",
"f. c #BBCB3D",
"g. c #BBCC3D",
"h. c #BCCC3D",
"j. c #BECE3D",
"k. c #BDCD3E",
"l. c #BECE3E",
"z. c #BFCE3E",
"x. c #BECF3E",
"c. c #BFCF3E",
"v. c #C0CF3E",
"b. c #C0D13E",
"n. c #C2D23E",
"m. c #C3D33E",
"M. c #C5D53F",
"N. c #C5D63F",
"B. c #C7D73F",
"V. c #C9DA3F",
"C. c #CADA40",
"Z. c #CCDC40",
/* pixels */
"                    -.$.-.o.%.-.%.%.                            ",
"                    1.5.5.2.-.-.%.-.                            ",
"                    z.z.z.d.-.o.%.-.                            ",
"                    ( ~ ! _ o.-.%.-.                            ",
"                    d p p N _ a.-.%.                            ",
"                    , % @ j ) z.2.-.                            ",
"                    b z z D } 9.%.%.                            ",
"                    -.-.-.-.-.$.%.-.                            ",
"                    C.Z.V.b.5.o.%.-.                            ",
"                    5.5.5.1.-.$.%.-.                            ",
"                    M v v G | 9.-.%.                            ",
"                    < * % j ( z.-.-.                            ",
"                    s e q M _ d.2.%.                            ",
"                        W ) o.5.%.%.-.-.                        ",
"                        z.d.e.7.9.5.-.%.                        ",
"                    5.1.1.e.d.c.z.r.2.o.-.-.                    ",
"                  -.o.5.5...W I P ( o.9.-.%.                    ",
"                -.o.-.g.N.Q j 8 i C -.C.5.%.-.%.                ",
"                %.-.-.-.] n : . X i G o.%.2.-.-.                ",
"                %.e.8.P f ,       + 6 B _ u.-.%.                ",
"                -.e.r.S 6 #         * f ! z.2.%.                ",
"                %.7.7.Q               D } 9.-.%.                ",
"                %.%.%.-.                -.%.-.-.                ",
"                g.9.-.2.              e.-.2.u.g.                ",
"                -.-.o.-.%.%.        %.-.%.-.-.-.                ",
"                C P 7.z.2.o.-.    %.%.e.c.[ A C                 ",
"                2 l ..m.2.o.-.-.-.-.%.r.c.P p 3                 ",
"                O 9 B ~ 5.z.d.e.r.g.z.X.P g - O                 ",
"                    2 n o.V.d.d.d.b.N.R d =                     ",
"                    X 9 Z R K K G P P k -                       ",
"                      2 9 e e w w e e 6                         ",
"                        , , : : : : : -                         "
};
