/* XPM */
static char *item21707309087[] = {
/* columns rows colors chars-per-pixel */
"32 32 40 1 ",
"  c #180E0E",
". c #5A595A",
"X c #EEBE6B",
"o c #EFBF6C",
"O c #EBC26D",
"+ c #ECC36E",
"@ c #F0C26F",
"# c #EEC370",
"$ c #EFC471",
"% c #EFC672",
"& c #F0C370",
"* c #F1C471",
"= c #F2C471",
"- c #F2C572",
"; c #F2C774",
": c #F3C774",
"> c #F3C975",
", c #F2CB77",
"< c #F4CA76",
"1 c #F4CB78",
"2 c #F5CD79",
"3 c #F6CF7C",
"4 c #F4D07C",
"5 c #F7D17D",
"6 c #F8D17E",
"7 c #F8D47F",
"8 c #B3B1B3",
"9 c #F7D480",
"0 c #F9D481",
"q c #FAD683",
"w c #FAD784",
"e c #FBD884",
"r c #FAD885",
"t c #FBDE89",
"y c #FDDC88",
"u c #FEDE8A",
"i c #FFDF8B",
"p c #FDE08C",
"a c #FFE692",
"s c white",
/* pixels */
"+###########*#&#####*#####;#*##+",
"#****&@*@@&2;&********&1<1a2w5&#",
"#***&25*511t<+&*******&rw*6X31&#",
"#***@6r*q5o&q>&&*****&&&&q2<q;&#",
"&****@2q*w2qp;&*********&q2*q>&#",
"#****@p6*3<;>@**********;3<t>@&#",
"#*****<*r;p6@&**********;u*2>$&#",
"#*****&*>*>*************&;@@@qp*",
"#&**&-&-&-&=&*    ***********<;*",
"*<&*-&-&-&-&& ssss ********@6p<+",
"*q&&&-&-&-&- ss8s8. ********&&&#",
"$&**-&-&-&-& s8s88. ***&*&@*&*&#",
"#*&-&-&-&-- s8sss88. **@+>5@&**&",
"#*&&-&-&-&& ss8s.88. *&rq2uo&**#",
"#&&+&-&-&-& s8ss.88. &&2<**56&*#",
"+<pq&&-&-&= s88s.88. qu&uq>a6&*#",
"&**;****&;> s88s.88. r2<<*<***@*",
"#*&*****#<u s88s.88. &@ee2q@**<p",
"#*******&*@ s88s.88. **@@<q@**q7",
"#********** s88..88. ***@*@@*$25",
"#********** s888888. ***&;&&*+65",
"#*********** s8888. ****&&o@**@+",
"#************ .... *****&1uq&**+",
"#*************    *******&1;&&&$",
"#***********************&:&-@:&&",
"#**************&********&&&:-@&&",
"#**************&**********&@**&1",
"#*************&@********&o&-*&&p",
"#&**********&$7r********wr6@*&&1",
"*q&*********&O22#*******32<&*&qw",
"$u&&******&#6u>qr&*******ut6@#<>",
"$$##########$<*#<##$####$$;$##$O"
};
