/* XPM */
static char *item1707223857[] = {
/* columns rows colors chars-per-pixel */
"32 32 103 2 ",
"   c #0D1319",
".  c #151C1B",
"X  c #191D1D",
"o  c #272E1F",
"O  c #1F2320",
"+  c #2A2625",
"@  c #2E3424",
"#  c #323524",
"$  c #453C31",
"%  c #3B4323",
"&  c #444D25",
"*  c #44452C",
"=  c #494F29",
"-  c #4A5426",
";  c #4E5927",
":  c #4D512B",
">  c #515B27",
",  c #515B28",
"<  c #4F4832",
"1  c #504233",
"2  c #5A4B38",
"3  c #5A5335",
"4  c #615738",
"5  c #5B6529",
"6  c #60642F",
"7  c #6A762D",
"8  c #737D2E",
"9  c #6D613D",
"0  c #7C6A44",
"q  c #897449",
"w  c #91794D",
"e  c #79842F",
"r  c #7A882F",
"t  c #7A8630",
"y  c #7D8930",
"u  c #838E33",
"i  c #889533",
"p  c #909D33",
"a  c #969A3C",
"s  c #94A235",
"d  c #9CAB37",
"f  c #9BA539",
"g  c #A0AE37",
"h  c #A2AE3A",
"j  c #A3B137",
"k  c #A5B438",
"l  c #A8B639",
"z  c #ADBC3A",
"x  c #B1BE3D",
"c  c #B4C43C",
"v  c #BBCB3D",
"b  c #C3D33E",
"n  c #8F8245",
"m  c #99814F",
"M  c #9E894D",
"N  c #948257",
"B  c #A18952",
"V  c #A98C56",
"C  c #B39658",
"Z  c #BC9C5C",
"A  c #B5BD42",
"S  c #BABE44",
"D  c #BFBD4A",
"F  c #BCA852",
"G  c #BAA45B",
"H  c #C3BF4C",
"J  c #CABF52",
"K  c #CEB75A",
"L  c #D8BF5E",
"P  c #C5A260",
"I  c #CDA963",
"U  c #D6AE66",
"Y  c #DEB56A",
"T  c #E2BD69",
"R  c #EFBF6C",
"E  c #BCC343",
"W  c #C2CC43",
"Q  c #C4C14B",
"!  c #C7D840",
"~  c #CDDC41",
"^  c #D1C355",
"/  c #D7C55E",
"(  c #DAC45D",
")  c #D2C85C",
"_  c #DEC362",
"`  c #DFCE63",
"'  c #DDCD68",
"]  c #E4C665",
"[  c #E7C369",
"{  c #EBC26D",
"}  c #F0C26F",
"|  c #EEC370",
" . c #F1C471",
".. c #F3C976",
"X. c #F5CD7A",
"o. c #F7D17D",
"O. c #F8D27E",
"+. c #F7D581",
"@. c #F9D682",
"#. c #FBD985",
"$. c #FDDE89",
"%. c #FDE18D",
"&. c #FFE691",
/* pixels */
"{ | | | | { | | | | | | | | | | { | | | | | | R | | ..| | | | { ",
"|  . . . . . . .} }  .X... .}  . . . . . . . .X.....&.X.#.O.R | ",
"|  . . . .X.X...o./ z z z z z z z S [  . . . .#.#. .O.R X.X. .| ",
"|  . . .R O.@. .#.` v v v c x z z H [  . . . .{ | +.X...+... .| ",
" . . . . .R X.#. .' A z z z z c z H [  . . . . . .+.X. .+... .| ",
"R  . . . . .$.+. .G 6 - & 8 g c z H {  . . . . ...X...$.X.R  .| ",
"|  . . . . ... .#.B @     - d v z Q {  . . . . ...$. .X... . .R ",
"|  . . . . . . . .G 7 5 5 r j c z Q [  . . . . . . . . .R +.$...",
"|  . . . . . . . .( W c v c z z z H {  . . . . . . . . . .....R ",
"| X.R  . . . . . .] ~ b ~ b c l z H [  . . . . . . . . .+.$...| ",
" .+. . . . . . . .K h s s d l c z H {  . . . . . . . . . .R  .| ",
"|  . . . . . . . .M # @ o 5 d v z H }  . . . . . . .R  . . . .| ",
"|  . . . . . . . .C 3 # X , d v x H _ {  . . .} R X.X. . . . .| ",
"|  . . . . . . . .R T F u p l c z x S ^ }  .} #.#.X.$.R  . . .| ",
"|  . . . . . . . .| { ( W E c c c c z S L [  ..... ...X.+. . .| ",
"R X.$.+.R  . . . .] Q E c c v v v c z z S ) $. .$.#...&.X.|  .R ",
"|  . . . . . . ._ J z c c k i e y s x v z A / _ ...... . . .}  .",
"|  . . . . . . .A x z v b i % X o , l b c z A E #.X.#.}  . ...%.",
"|  . . . . . . .z x c d u = * 1 $ * 5 p k c z z R ..O.}  . .@.O.",
"|  . . . . .}  .z c c e o $ P U U N X - f v x z  . . . . .| X.o.",
"|  . . . . . . .z c c a n Z }  .#.| M u A x z z  . . . . .{ O.+.",
"|  . . . . . . .z z z H {  .}  .X.X.} ( A z z z  . .R  . . .| R ",
"{  . . . . . . .v c z Q / [  . . .{ ] ^ A x c v  ...%.O.}  . .| ",
" . . . . . . .} z z z z x Q {  . ._ A z z z z z  . ... . . . .| ",
"|  . . . . . . .5 r c v c x H J J D z v ! h 7 5  . . . . . . .| ",
"|  . . . . . . .+ ; d v x x c c x c z c c t # O  . . . . . . .R ",
"|  . . . . . . .w 4 & u c b b v v ! ! g 7 * 0 w  . . . . . . ...",
"|  . . . . . . .{ V + : s c k j j z z 8 # 2 Y  . .R  . . . . .%.",
"| }  . . . . . . .Y V 9 & > - - - ; ; : q Z  . .#.#.O.}  . .R ..",
" .+. . . . . . . . .| m X . . . . . . < I |  . .X.X... . .| @.#.",
" .$.}  . . . . . . . .| X.%...#.#. . . . . . . ...#.$.+. .| ....",
"| | | | | |  .{ | | | | | ..| | ..| | | | | | | | | | | | | | { "
};
