/* XPM */
static char *item1707308397[] = {
/* columns rows colors chars-per-pixel */
"32 32 42 1 ",
"  c #180E0E",
". c #5A595A",
"X c #EFBF6C",
"o c #EBC26D",
"O c #ECC36E",
"+ c #F0C26F",
"@ c #EEC370",
"# c #EFC471",
"$ c #EFC672",
"% c #F0C370",
"& c #F1C471",
"* c #F2C471",
"= c #F2C572",
"- c #F2C774",
"; c #F3C774",
": c #F3C874",
"> c #F3C975",
", c #F2CB77",
"< c #F4CA76",
"1 c #F4CB78",
"2 c #F5CD79",
"3 c #F6CE7A",
"4 c #F6CF7C",
"5 c #F4D07C",
"6 c #F7D17D",
"7 c #F8D17E",
"8 c #F8D47F",
"9 c #B3B1B3",
"0 c #F7D480",
"q c #F9D481",
"w c #FAD683",
"e c #FAD784",
"r c #FBD884",
"t c #FAD885",
"y c #FCDA86",
"u c #FBDE89",
"i c #FDDC88",
"p c #FCDF8B",
"a c #FFDF8B",
"s c #FDE08C",
"d c #FFE692",
"f c white",
/* pixels */
"O@@@@@@@@@@@&@%%@@@@%@@@@@####OO",
"@&&&&%+&+%%2;@%&&&&&&&&1<1d4t7%@",
"@&&&%26&6<<u1O+%&&&&&&%re%7X41%@",
"@&&&+7t&e6X%e<%%&&&&&%%%%w1<e;%@",
"%&&&&+2w&e2ws-%&&&&&&&&&%w2&w>+@",
"@&&&&+s7&4<->+&&&&&&&&&&%4<p<+%@",
"@&&&&&<&t-s7+%&&&&&&&&&&<p%2>%%@",
"@&&&&&%&>&>&&&&&&&&&&&&&%-+++es%",
"@%&&%=%=%=%*&&    &&%=%=&&&&=<;%",
"&<%&=%=%=%=%  ffff  =%=%&&%%7s<O",
"&w%%%=%=&&% ff9999ff %%=&&&&%%%%",
"#%&&=%=%&% f99999ff9f &%&%%%%&%@",
"@&%=%=%=& f9999fff9f9. %+<4O%&&%",
"@&%%=%=%& f999fff.f99. rw2pX%&&@",
"@%%O%=%=& f99fff9f999. <<%&67%&@",
"O<sw%%=%& f99ff9f.999. &pw>d7%&@",
"#&&&&&&&& f9ffff9.999. >>&===&%&",
"#&&&&&&&% fff9f99.999. rr2r+&&<s",
"@&&&&&&&& ff9ff99.999. +#<w+&&ww",
"@&&&&&&&& f9f99..9999. &#O+%&&22",
"@&&&&&&&&& f99999999. &&%;%%&O76",
"@&&&&&&&&&& ff9999.. &&&%%X+&&&O",
"@&&&&&&&&&&&  ....  &&&&%1pw%&+#",
"@&&&&&&&&&&&&&    &&&&&&%%1-%%%O",
"@&&&&&&&&&&&&&&&&&&&&&&&=%%%*%;%",
"@&&&&&&&&&&&&&%%&&&&&&&&%;;%%*%X",
"@&&&&&&&&&&&&&&%&&&&&&&&%***%-;<",
"@&&&&&&&&&&&&&%%&&&&&&&&%X%%%%%p",
"%+&&&&&&&&&&%+0e&&&&&&&&ee4%%%X1",
"&w%&&&&&&&&&%%22@&&&&&&&44<+-%ee",
"#sO%&&&&&&%@7s>er%&&&&&%&pp6%@>,",
"O&@@@@@@@@@@@<##>@@#@@@@%&-%@@@O"
};
