/* XPM */
static char *item41707309087[] = {
/* columns rows colors chars-per-pixel */
"32 32 40 1 ",
"  c #180E0E",
". c #5A595A",
"X c #EEBE6B",
"o c #EFBF6C",
"O c #ECC36E",
"+ c #F0C26F",
"@ c #EEC370",
"# c #EFC471",
"$ c #EFC572",
"% c #F0C370",
"& c #F1C471",
"* c #F2C471",
"= c #F2C572",
"- c #F2C774",
"; c #F3C774",
": c #F3C975",
"> c #F2CB77",
", c #F4CA76",
"< c #F4CB78",
"1 c #F5CD79",
"2 c #F6CF7C",
"3 c #F4D07C",
"4 c #F7D17D",
"5 c #F8D17E",
"6 c #F8D47F",
"7 c #B3B1B3",
"8 c #F8D380",
"9 c #F9D481",
"0 c #FAD683",
"q c #FAD784",
"w c #FBD884",
"e c #FAD885",
"r c #FBDE89",
"t c #FDDC88",
"y c #FCDF8B",
"u c #FEDE8A",
"i c #FFDF8B",
"p c #FDE08C",
"a c #FFE692",
"s c white",
/* pixels */
"O@@@@@@@@@@@&@%@@@@@&@@@@@-@&@@O",
"@&&&&%+&++%1-%&&&&&&&&%<,<a1q4%@",
"@&&&%14&4<<r,O%&&&&&&&%eq&5X2<%@",
"@&&&+5e&04o%0:%%&&&&&%%%%01,0-%@",
"%&&&&+10&q10p-%&&&&&&&&&%01&0:%@",
"@&&&&+p5&2,-:+&&&&&&&&&&-2,r:+%@",
"@&&&&&,&e-p5+%&&&&&&&&&&-u&1:#%@",
"@&&&&&%&:&:&&&&&&&&&&&&&%-+++0p&",
"@%&&%=%=%=%*%&    &&&&&&&&&&&,-&",
"&,%&=%=%=%=%% ssss &&&&&&&&+5p,O",
"&0%%%=%=%=%= s7777. &&&&&&&&%%%@",
"#%&&=%=%=%=% s7777. &&&%&%+&%&%@",
"@&%=%=%=%== s77ss77. &&+O:4+%&&%",
"@&%%=%=%=%% s77s.77. &%e01uo%&&@",
"@%%O%=%=%=% s7ss.77. %%1,&&45%&@",
"O,p0%%=%=%* s77s.77. 0u%u0:a5%&@",
"%&&-&&&&%:: s77s.77. e1,,&,%%=%%",
"@&%&&&&&@:u s77s.77s %+ww1w+=%,p",
"@&&&&&&&%%+ s77s.7ss &&++,0+&#w5",
"@&&&&&&&&&& s77..ss. &&&+&O+&&14",
"@&&&&&&&&&& s777ss7s &&&%%%%&+44",
"@&&&&&&&&&&& s7ss7s &&&&%%%O&&@O",
"@&&&&&&&&&&&& ss.s &&&&&%<u0%&%@",
"@&&&&&&&&&&&&&    &&&&&&%=,-%&%@",
"@&&&&&&&&&&&&&&&&&&&&&&&*%%%*%;%",
"@&&&&&&&&&&&&&&%&&&&&&&&%;;%%*%o",
"@&&&&&&&&&&&&&&%&&&&&&&&%***%-;,",
"@&&&&&&&&&&&&&%+&&&&&&%%%o%%%%%y",
"@%&&&&&&&&&&%+0e-%%&&&&-qq0o%%o<",
"%q%&&&&&&&&&%O11%%&&&&&&22-O-%qq",
"&u%%&&&&&&%%5u-qu%&&%&%%%tr8%%:>",
"##@@@@@@@@@##-#&&@@&@@@@@--%%#OO"
};
