/* XPM */
static char *player_down1707223857[] = {
/* columns rows colors chars-per-pixel */
"32 32 191 2 ",
"   c #020201",
".  c #060A07",
"X  c #0A0905",
"o  c #0A0806",
"O  c #160B0A",
"+  c #14110E",
"@  c #070C17",
"#  c #0A1118",
"$  c #1A1613",
"%  c #171318",
"&  c #270E0E",
"*  c #24160F",
"=  c #271A16",
"-  c #361312",
";  c #361F1A",
":  c #2C2419",
">  c #36231C",
",  c #322A1C",
"<  c #091325",
"1  c #141927",
"2  c #1C1C2C",
"3  c #1A2331",
"4  c #272227",
"5  c #332422",
"6  c #382B24",
"7  c #322B2C",
"8  c #3B302E",
"9  c #23263E",
"0  c #332F37",
"q  c #3D3237",
"w  c #4D1B1C",
"e  c #561D1D",
"r  c #402821",
"t  c #522D2A",
"y  c #4B3726",
"u  c #58382C",
"i  c #462F3D",
"p  c #433336",
"a  c #553A31",
"s  c #5D3D35",
"d  c #712323",
"f  c #792929",
"g  c #683B37",
"h  c #73393C",
"j  c #5E4D2D",
"k  c #624336",
"l  c #694F34",
"z  c #64433A",
"x  c #68453D",
"c  c #7E633C",
"v  c #192D4B",
"b  c #23274A",
"n  c #2C314F",
"m  c #343652",
"M  c #3E3750",
"N  c #33335C",
"B  c #2E3A64",
"V  c #373760",
"C  c #373861",
"Z  c #393962",
"A  c #473F5B",
"S  c #6B3E54",
"D  c #6F3E59",
"F  c #35436B",
"G  c #39416C",
"H  c #3B4473",
"J  c #2A507E",
"K  c #5C4547",
"L  c #6E4A41",
"P  c #784140",
"I  c #665054",
"U  c #42416C",
"Y  c #584F6C",
"T  c #464978",
"R  c #634763",
"E  c #625D69",
"W  c #6B6773",
"Q  c #A42F2E",
"!  c #AA312F",
"~  c #A33537",
"^  c #BC3537",
"/  c #BF3838",
"(  c #CB3735",
")  c #C23939",
"_  c #CD3B3B",
"`  c #D63B39",
"'  c #9C442F",
"]  c #AB4733",
"[  c #D64B3E",
"{  c #FD542C",
"}  c #FA5731",
"|  c #F9613E",
" . c #AB3B42",
".. c #B83E45",
"X. c #8A4944",
"o. c #845A47",
"O. c #91544D",
"+. c #985F55",
"@. c #836D41",
"#. c #977A48",
"$. c #9A6750",
"%. c #A76B5A",
"&. c #AA7258",
"*. c #B3785D",
"=. c #827069",
"-. c #BF7A62",
";. c #DE4040",
":. c #ED4444",
">. c #E95A44",
",. c #F46545",
"<. c #FA6A49",
"1. c #FF7550",
"2. c #C27965",
"3. c #F67A61",
"4. c #9E8856",
"5. c #A5844F",
"6. c #BB8F5B",
"7. c #B89558",
"8. c #988672",
"9. c #AF896D",
"0. c #AC916E",
"q. c #B59A73",
"w. c #BEA376",
"e. c #C49E5B",
"r. c #C9A55F",
"t. c #C7876B",
"y. c #D0876C",
"u. c #D68D6E",
"i. c #CE9E7D",
"p. c #DB9271",
"a. c #E49A77",
"s. c #F09F7B",
"d. c #CAA66A",
"f. c #D3A865",
"g. c #C5AA7A",
"h. c #D8B674",
"j. c #E2B56B",
"k. c #E6BA6C",
"l. c #EBBF6E",
"z. c #F2A27D",
"x. c #E3BE71",
"c. c #EDC26F",
"v. c #F0C26F",
"b. c #EEC370",
"n. c #F1C471",
"m. c #F3CA76",
"M. c #F5CC79",
"N. c #F6D17D",
"B. c #F8D27E",
"V. c #385282",
"C. c #3754A6",
"Z. c #3D5CB5",
"A. c #3D66AA",
"S. c #3E64BA",
"D. c #6B6A8F",
"F. c #78758A",
"G. c #747692",
"H. c #387BCD",
"J. c #817A82",
"K. c #4B96EF",
"L. c #BB909A",
"P. c #818BB2",
"I. c #9096B4",
"U. c #A9A5AF",
"Y. c #D88987",
"T. c #F89B88",
"R. c #DCA784",
"E. c #E7AB86",
"W. c #EBB48D",
"Q. c #FFB189",
"!. c #F4BA92",
"~. c #F9D682",
"^. c #FADA87",
"/. c #F9C89D",
"(. c #FDE18C",
"). c #FFE692",
"_. c #FFDDAB",
"`. c #9D9CC0",
"'. c #9AA8D3",
"]. c #A9AACC",
"[. c #B7B8D8",
"{. c #DFCEDD",
"}. c #EED3D9",
"|. c #F2D7DD",
" X c #F5D8DD",
".X c #C3C4E2",
"XX c #C5CCE7",
"oX c #CCD1E7",
"OX c #DCE2F6",
"+X c #ECECFF",
"@X c #F6FAFF",
/* pixels */
"c.b.b.b.b.c.b.b.n.n.n.l.b.b.y : 4 y n.b.n.n.b.l.l.b.n.n.b.c.c.c.",
"b.n.n.n.n.n.v.n.d.0.0.q.0.0.W E E E 0.0.0.0.0.h.m.M.).M.^.B.v.b.",
"c.n.n.n.v.M.N.n.8.Z Z N Z N ].[.[.].N V V V M 8.~.n.N.c.B.m.n.c.",
"b.n.n.n.v.B.g.Y F.`.[.oXXXXXOXOX+XOXXXXXoX[.`.F.Y g.m.m.B.m.n.b.",
"b.n.n.n.n.v.q.N P..X{. X|.|.}.}.}.}.|.|. X{.XXP.N q.M.m.^.m.v.c.",
"b.n.n.n.n.v.g.b I.@Xs.{ | | | ,.| | | ,.} T.@XI.b w.m.(.m.v.n.c.",
"c.n.n.n.h.=.F.P.L.T.3.,.,.<.<.<.,.,.<.,.,.3.T.L.P.J.=.h.n.v.n.v.",
"b.n.n.b.d.Z D.XXY.{ ,.<.<.<.,.,.,.,.<.<.,.,.{ Y.XXD.C d.v.^.(.n.",
"b.n.n.n.g.Z R ` ) ^ >.<.<.1.*     * 1.1.<.>.^ ) _ D H g.n.M.n.n.",
"n.m.n.n.d.G D ( ) ^ [ >.] ' e w w e ' ] >.[ ^ / ( D Z d.B.^.M.b.",
"n.~.l.n.d.F D ` ) ) ^ _ O   ^ :.;./   O _ ^ / ) _ D B d.n.l.n.b.",
"v.v.k.y t K g f ~ _ ) ( ! ! - & & - ! ! ( ( _ ~ f g K a y k.n.b.",
"n.r.7.; 6 x u w f Q ~  . ...% # @ % .. . .~ ~ f e u z r ; e.r.l.",
"b.- ; L x x 6       b T H H T T T T H T H b       6 x x x ; - v.",
"b.5.#.= > x a 5 k $.p 2 2 4 2 2 2 2 2 2 2 p $.z 5 a x 6 = #.5.b.",
"c.m.^.o $ z g z &.Q.u   .   o o o o   o   a Q.&.s g z $ o k.n.b.",
"v.n.n.v.7.  u s.p.u.E./.5   i.W.W.g.  6 /.E.u.p.z.u   7.c.n.n.c.",
"v.n.n.v.f.l l 2.t.p.p.Q.s = R.W.!.E.* g !.a.p.2.-.c l r.c.c.M.^.",
"n.n.v.v.l.v.7.S %.s.a.a.O.h W./.!.E.h O.a.p.T.%.h 6.~.l.n.n.~.~.",
"c.n.v.v.r.: 0 Y q * k X.2.y.p.a.a.a.y.2.X.g * 0 Y 7 : d.n.c.M.N.",
"b.n.b.f.6.: 0 U b @ i S %.-.&.*.*.*.-.%.K A < 9 U 0 ; e.f.l.B.~.",
"b.n.k.h $._.9.  B Z.C.C.#             < Z.C.Z.B   9._.$.x k.l.l.",
"n.n.j.h O.W.t.$.I n G V.n 9 W D.D.E   # 9 b m I $.t.z.O.h k.n.n.",
"b.n.k.P O.p.u.s.o.$ M U T H ]..X.X].o .   O $ @.s.p.p.O.S k.n.n.",
"b.n.n.c.f.X.t   o   V.H.'.[.+X@X@X+X[.'.H.J   o   t X.f.l.n.n.n.",
"b.n.n.n.j.&.o.1 % O F A.G.G.U.U.U.U.F.G.A.F O 3 v A R f.n.n.n.l.",
"b.n.n.n.n.b.q.T M 5 M U 7 $ 8 q 8 8 $ 4 U M > V.K.S.C.g.n.n.n.M.",
"b.n.n.n.n.c.4.% # . 4 0 7 7 $ + % $ 7 7 0 4 o # 3 1 < 7.n.n.n.^.",
"n.l.n.n.n.n.#.o O & r t 7 4 , , , : 4 6 t ; & O   = , e.n.n.n.M.",
"n.~.n.n.n.n.#.  d :.` :.-   x.M.c.j.  - :.[ :.d   4.m.n.n.n.~.~.",
"n.^.n.n.n.n.f.#.j e w e c 4.c.~.^.k.#.c e w e l #.x.^.~.c.b.M.m.",
"b.m.b.b.b.b.b.b.@.. . . r.m.c.m.m.c.c.r.. . . c c.m.n.b.b.c.c.c."
};
