/* XPM */
static char *player_down1706890858[] = {
/* columns rows colors chars-per-pixel */
"32 32 112 2 ",
"   c None",
".  c #010409",
"X  c #030C0D",
"o  c #090E10",
"O  c #031615",
"+  c #0C1414",
"@  c #071918",
"#  c #0C1D1C",
"$  c #101315",
"%  c #1B1215",
"&  c #141B1B",
"*  c #191D1E",
"=  c #211417",
"-  c #29191C",
";  c #19201F",
":  c #1B1F20",
">  c #261F21",
",  c #102323",
"<  c #1D2423",
"1  c #1F2825",
"2  c #123127",
"3  c #222425",
"4  c #202926",
"5  c #252729",
"6  c #262A2A",
"7  c #2B2C2D",
"8  c #36262C",
"9  c #3A2629",
"0  c #27322D",
"q  c #2A342F",
"w  c #2D2D31",
"e  c #322F33",
"r  c #223331",
"t  c #2D3732",
"y  c #233C33",
"u  c #2F3933",
"i  c #333434",
"p  c #3B3537",
"a  c #323D36",
"s  c #3B363A",
"d  c #3C393B",
"f  c #7D101E",
"g  c #443A3D",
"h  c #75232F",
"j  c #7C202C",
"k  c #2A4239",
"l  c #324037",
"z  c #34413A",
"x  c #3B433E",
"c  c #3B483F",
"v  c #453E42",
"b  c #4A3F45",
"n  c #663F46",
"m  c #3D4A41",
"M  c #464343",
"N  c #494346",
"B  c #414C44",
"V  c #4D4649",
"C  c #4E4A4B",
"Z  c #50474A",
"A  c #514B4D",
"S  c #425045",
"D  c #45544A",
"F  c #4A554B",
"G  c #4A5A4D",
"H  c #50524F",
"J  c #554D50",
"K  c #495551",
"L  c #555652",
"P  c #5C5455",
"I  c #555B54",
"U  c #5A5956",
"Y  c #5D5E59",
"T  c #78414A",
"R  c #536554",
"E  c #586157",
"W  c #526856",
"Q  c #5B635A",
"!  c #546D5B",
"~  c #5C6C5D",
"^  c #54705E",
"/  c #5C715D",
"(  c #62615D",
")  c #616D5F",
"_  c #5F7160",
"`  c #646C61",
"'  c #617462",
"]  c #687466",
"[  c #647965",
"{  c #667D68",
"}  c #697E6A",
"|  c #8E2F3A",
" . c #AD2A3A",
".. c #E11E33",
"X. c #883843",
"o. c #A43643",
"O. c #D93D50",
"+. c #B25555",
"@. c #B2716F",
"#. c #E35566",
"$. c #6D826D",
"%. c #708771",
"&. c #738973",
"*. c #A17D86",
"=. c #869292",
"-. c #8BA99A",
";. c #B8A49F",
":. c #A6ABAF",
">. c #ACC2B8",
",. c #F0B7C2",
"<. c #A6C8C1",
"1. c #E0F2F5",
/* pixels */
"                            & & & &                             ",
"                          < 0 u t 0 <                           ",
"                        & u G / / G u &                         ",
"                      o + a ~ &.&.~ a + o                       ",
"                      o + u W $.$.R i + o                       ",
"                      4 l F ~ [ [ ~ D a 4                       ",
"    & & + & &     + < c ~ [ ' _ ' ' [ ~ c ; +     & & $ & &     ",
"  ; q c B c t & X X & x Q ] ' _ ' ' $.[ m * . X & q c m x q ;   ",
"& 1 B ' } ] F 6 + + * q V U ) _ ' ' } ~ m < o o 6 G ] $.' S < * ",
"& 4 D $.%.{ ~ F z i e g N A L L L I ~ / R B z x S ! { &.} F 1 & ",
"& 3 m ' [ ' ' [ _ L Z Z C C C C N A I ' ' ' [ [ ' _ _ [ ' m < & ",
"& < x Y ' ' { { [ ) Q Y Q Q I I I Y ~ ' ' [ } [ { { ' ' Y x < * ",
"& < w N L ~ _ ~ ) ' _ [ _ [ _ ' ' / ' / _ _ _ ~ ~ ' ~ I b w : & ",
"    * 5 g L Y P Q ~ [ [ _ [ [ [ [ [ ' [ _ [ / Q U Y L g 5 *     ",
"    + + 5 d v g M I ` ! ^ ~ ~ ~ ~ ~ ~ ! ^ ) L N g v s 5 + +     ",
"    & & & < * & 6 M Y I D K I P P I K D I Y M 5 & * < & & &     ",
"    + & * : : * 1 w g Z T T g s s v n n n d w 1 : : : & & &     ",
"    + + 3 s N M i < - | O.o.9 # # 9 o.O.| > , i v b s 5 $ o     ",
"    < t M I ( ( C r - h  .h = X . = |  .h > r C Y ( I B t <     ",
"* < c ~ ' ~ ~ ' Q K g 8 - $ $ + + % % = 8 g L W ' _ ~ ` ! m 1 & ",
"& 1 G $.%.[ ' [ ' ` I a 2 2 y k y y 2 2 a I ` ` [ [ [ %.$.G 3 & ",
"& 1 D [ } ' _ _ _ ) ) W W W ! ^ _ ! W R ! ~ ' _ _ _ _ $.] D 1 & ",
"  < 0 c F I ~ _ ' ! } -.>.;.@.+.+.@.;.>.-.} ! _ _ ~ I F c q <   ",
"    + & e N I ~ _ R } <.1.,.#.....#.,.1.<.} R _ ~ I M 7 & +     ",
"  & : 7 s b J I L F ~ =.:.*.X.f f X.*.:.=.Q F I I A N s 7 > &   ",
"& < p A J Z V V C Z Z Z M e & O O & i N Z V A V Z Z Z J A s < & ",
"& < d P P P A V V J Z s > + @ O O @ + 3 s Z J V V A A P P d < & ",
"& < i V V M M V C Z M 7 & + & & & & + & 7 v J C V V M A V i : & ",
"    3 5 6 5 i V C d 6 & & + & * * & + & < 3 s N M s 5 6 6 3     ",
"      & + + 6 N M 5 + + & & & & & & & & + + 6 M N 6 + + $       ",
"                          & & & & & &                           ",
"                            & & & *                             "
};
