/* XPM */
static char *player_left1707223858[] = {
/* columns rows colors chars-per-pixel */
"32 32 208 2 ",
"   c #010101",
".  c #0B0404",
"X  c #0B0806",
"o  c #04060B",
"O  c #0B0A0A",
"+  c #1A0905",
"@  c #130D0B",
"#  c #1C0D0A",
"$  c #15120E",
"%  c #1B130D",
"&  c #0D0E15",
"*  c #0E141B",
"=  c #191617",
"-  c #220C06",
";  c #25120E",
":  c #291511",
">  c #2D1814",
",  c #2C1A19",
"<  c #3B1111",
"1  c #321B15",
"2  c #2C241C",
"3  c #36261C",
"4  c #3D331E",
"5  c #161828",
"6  c #242323",
"7  c #2B2325",
"8  c #2C282B",
"9  c #382725",
"0  c #3B2C23",
"q  c #342C2C",
"w  c #2F2B32",
"e  c #342F38",
"r  c #393332",
"t  c #3E393B",
"y  c #471514",
"u  c #581818",
"i  c #631D1D",
"p  c #701A17",
"a  c #4C2016",
"s  c #63271C",
"d  c #442C26",
"f  c #4A2A24",
"g  c #562B2C",
"h  c #4A3B25",
"j  c #4C3029",
"k  c #593529",
"l  c #4A3634",
"z  c #543733",
"x  c #5C3E36",
"c  c #6A2728",
"v  c #792222",
"b  c #79382E",
"n  c #6A3837",
"m  c #793434",
"M  c #4B4128",
"N  c #58482B",
"B  c #624139",
"V  c #6B473F",
"C  c #704836",
"Z  c #685532",
"A  c #725D35",
"S  c #72613A",
"D  c #7D653A",
"F  c #2E2D45",
"G  c #2A2E52",
"H  c #323555",
"J  c #3C3B61",
"K  c #353E6C",
"L  c #2A3B72",
"P  c #413F40",
"I  c #413D57",
"U  c #663D48",
"Y  c #3F4067",
"T  c #3B426A",
"R  c #354676",
"E  c #48464B",
"W  c #454D50",
"Q  c #524E52",
"!  c #565457",
"~  c #664C4B",
"^  c #784646",
"/  c #7A5648",
"(  c #774758",
")  c #764C5F",
"_  c #454368",
"`  c #534D64",
"'  c #5D5666",
"]  c #4A4973",
"[  c #545576",
"{  c #755D77",
"}  c #756768",
"|  c #7C7071",
" . c #962B2B",
".. c #8F3737",
"X. c #9A3937",
"o. c #B52D2E",
"O. c #BB3537",
"+. c #BD3A3A",
"@. c #C22924",
"#. c #D73529",
"$. c #C33A39",
"%. c #C83A3A",
"&. c #D33D3D",
"*. c #89442B",
"=. c #8A493C",
"-. c #A64B34",
";. c #B3543F",
":. c #D64B3E",
">. c #C6533D",
",. c #FF6133",
"<. c #854A44",
"1. c #8A5C48",
"2. c #975850",
"3. c #866D47",
"4. c #957A4A",
"5. c #926E51",
"6. c #A56A57",
"7. c #AB7654",
"8. c #B6785E",
"9. c #82596B",
"0. c #B9707E",
"q. c #CA5C42",
"w. c #EA4343",
"e. c #F34545",
"r. c #FF6B45",
"t. c #F76748",
"y. c #FF6E4A",
"u. c #FF714D",
"i. c #FF7652",
"p. c #9D804A",
"a. c #AA8B51",
"s. c #BA875D",
"d. c #BA9759",
"f. c #968372",
"g. c #BD8663",
"h. c #B08C76",
"j. c #B59C7B",
"k. c #C29E5B",
"l. c #FF8657",
"z. c #C9A35D",
"x. c #CA8C68",
"c. c #CA9C61",
"v. c #DA976C",
"b. c #DD9B73",
"n. c #E19E74",
"m. c #CBA763",
"M. c #D6A666",
"N. c #D4AC64",
"B. c #DAB267",
"V. c #DDB46A",
"C. c #C9A67A",
"Z. c #E4BA6C",
"A. c #E8BC6B",
"S. c #EAA677",
"D. c #EDC26E",
"F. c #F0C26F",
"G. c #EEC370",
"H. c #EDC97B",
"J. c #F1C471",
"K. c #F3CA76",
"L. c #F6CD7A",
"P. c #F6D17D",
"I. c #F8D17E",
"U. c #2F4E86",
"Y. c #39649D",
"T. c #3A52A2",
"R. c #3053B4",
"E. c #3D65B3",
"W. c #495289",
"Q. c #5E5F85",
"!. c #686787",
"~. c #7A7E87",
"^. c #727393",
"/. c #4576BE",
"(. c #C97989",
"). c #4188D9",
"_. c #9B888C",
"`. c #848198",
"'. c #A88C8E",
"]. c #B8A185",
"[. c #8E8EA8",
"{. c #A39CB4",
"}. c #D08589",
"|. c #D3AF8F",
" X c #DAB891",
".X c #FAB986",
"XX c #F5B499",
"oX c #D0BEAC",
"OX c #FFB1A0",
"+X c #F9D582",
"@X c #FBDA86",
"#X c #F6C39B",
"$X c #FDE18D",
"%X c #D5C1AF",
"&X c #A9A9CA",
"*X c #AEAED1",
"=X c #ADB3D5",
"-X c #B6B7D8",
";X c #C5C5D8",
":X c #C8C9E3",
">X c #D1D1E2",
",X c #D9DDF5",
"<X c #E9E9EB",
"1X c #E7E7F6",
"2X c #EAEAF9",
"3X c #EEF2FA",
"4X c #F2F2FC",
"5X c #F8FAFD",
/* pixels */
"D.G.G.G.G.G.G.G.G.f.T T T T T T T T K H I J J ` V.J.K.G.G.J.G.D.",
"G.J.J.J.J.F.F.N.p./ 9.) ) ) ) ) ) ( { ^.^.^.!.!.h.C.$XL.+XI.F.G.",
"D.J.J.J.F.L.I.4.  *.l.r.r.r.r.r.u.,.OX5X5X5X:X*X[ ' H.A.L.L.J.G.",
"G.J.J.J.F.N.M k  .s s >.u.t.t.y.q.s '.4X2X2X,X>X[ ' H.K.I.K.J.D.",
"G.J.J.J.F.a.  s w.u   -.i.t.t.y.;.O ~.3X2X2X4X<XW.' H.K.+XK.F.D.",
"G.J.J.V.. $ q = . e Q * - q.u.y.;.O ~.4X2X1X2X1X-X{._ | L.D.J.D.",
"G.J.d.p.$ ; q =   6 P , y >.t.t.q.a _.3X2X2X2X2X{.`._ } K.F.J.J.",
"G.J.  O ! E 7 =        .w.o.>.t.u.,.OX3X2X2X4X<Xr , _ } F.+X$XJ.",
"G.J.. O Q M 8 f v p v o.%.O.%.:.:.#.}.:X:X:X:X;Xt 8 Y | J.K.K.G.",
"G.K.. O ! F 7 m w.&.&.+.$.$.$.O.+.o.0.=X&X*X*X*Xr 7 _ } I.@XK.G.",
"J.@X  O Q Q W M 9 ..&.$.%.$.O.+.+.@.0.=X-X-X-X-X[ H o o   D J.G.",
"D.G.3 2 P P Q F 8 m +.X. .O.$.+.$.@.0.-X{.[.[.[._ F $ @ @ N m.G.",
"G.J.J.B.  = ! Q Q ! W * . o.w.&.&.#.(.,XE       + 1 B V / d   J.",
"G.J.J.Z.D Z 8 6 6 7 6 O   u i u u u z [ q @ , 3 f j B z 1 h D G.",
"G.J.F.J.D.d.                            + > z V V B V d   A J.G.",
"D.K.$XI.D.c.n 5. X|.C.9 X j.j.: > x d # d x B B B B B x x 9 X G.",
"G.J.J.J.J.M.<.8.#X#XXXl ; |.|.1 1 x j , f x B B B B z z x 3 X G.",
"G.J.J.J.J.G.K.s.n g.S.<.n v.x.: # ; d ^ d # z V V x       A K.$X",
"G.J.J.J.J.J.J.M.7.7.8.6.6.b.x.1.x : 3 j d f 9 3 3 4 S A Z a.I.+X",
"G.J.J.J.J.J.J.J.G.7.c x..Xb.n..Xs.> : ; j / @     3 D.J.F.D.P.P.",
"G.J.J.J.J.J.J.J.G.|.{.9.=.2.C 9 % .   . X % 4.z.k.z.G.J.F.J.P.P.",
"G.J.J.J.J.J.J.J.K.oX=X9.m U g @   o o     & a.Z.J.J.F.J.J.J.F.D.",
"G.J.J.J.J.J.J.J.J.%X-X!.G w 7 1 e ] F   L T.5 % N.K.$XI.F.J.J.G.",
"D.J.J.J.J.J.J.J.G.].`.W.K z z H H I 5   G T.* % N.J.K.J.J.J.J.G.",
"G.J.J.J.J.J.J.J.D.4.r U.T.^ U R.L 6 O   F ] * $ N.J.J.J.J.J.J.D.",
"G.J.J.J.J.J.J.J.D.3.r Y./.U =.h.h.g.1.c r e 6 4 N.J.J.J.J.J.J.A.",
"G.J.J.J.J.J.J.J.D.4.9 Y./.U =.v.b.S.6.( l 8 q l B.J.J.J.J.J.J.L.",
"G.J.J.J.J.J.J.J.F.D.Z.N . = r U ^ b Q.).E.T.F h N.J.F.J.J.J.J.$X",
"D.F.J.J.J.J.J.J.K.F.Z.M . f m ....X.) U.R R ~ 3.H.@XI.F.J.J.F.K.",
"J.+XJ.J.J.J.J.J.F.F.V.h + +.e.&.&.e.p   $ 0 m.D.L.L.K.D.J.F.+X@X",
"K.@XF.J.J.J.J.J.K.F.D.z.4.f < < < y N a.d.d.Z.G.J.@X@X+XF.J.K.K.",
"D.J.G.G.G.G.D.F.D.D.D.D.B.d   . o   D A.G.G.G.G.G.K.K.J.D.D.D.D."
};
