/* XPM */
static char *player_left1706890858[] = {
/* columns rows colors chars-per-pixel */
"32 32 110 2 ",
"   c None",
".  c #140C11",
"X  c #051314",
"o  c #0D1515",
"O  c #081917",
"+  c #031B19",
"@  c #0E1818",
"#  c #101717",
"$  c #111718",
"%  c #131A1A",
"&  c #191E1E",
"*  c #2F161B",
"=  c #0C221F",
"-  c #1A1F20",
";  c #0D2B23",
":  c #152121",
">  c #1D2322",
",  c #122C25",
"<  c #1D282A",
"1  c #1D3129",
"2  c #212526",
"3  c #212926",
"4  c #242728",
"5  c #262A2A",
"6  c #2B2C2D",
"7  c #23312C",
"8  c #2F2C30",
"9  c #263932",
"0  c #2E3A34",
"q  c #333334",
"w  c #303A35",
"e  c #373638",
"r  c #383738",
"t  c #3C3A3C",
"y  c #470E16",
"u  c #46141C",
"i  c #4C1A21",
"p  c #771F28",
"a  c #40363A",
"s  c #413C3E",
"d  c #633336",
"f  c #673038",
"g  c #2B4037",
"h  c #2E413C",
"j  c #324037",
"k  c #34433B",
"l  c #38443C",
"z  c #3B483F",
"x  c #41403F",
"c  c #433E41",
"v  c #683F47",
"b  c #3E4C41",
"n  c #454142",
"m  c #4A4346",
"M  c #414D44",
"N  c #4D4649",
"B  c #4E484A",
"V  c #564147",
"C  c #51474C",
"Z  c #524B4D",
"A  c #425045",
"S  c #465248",
"D  c #48554A",
"F  c #4A5C4D",
"G  c #52524F",
"H  c #564E51",
"J  c #584F52",
"K  c #455551",
"L  c #485D54",
"P  c #545551",
"I  c #5A5354",
"U  c #555B54",
"Y  c #585C56",
"T  c #565D58",
"R  c #6A494C",
"E  c #765A52",
"W  c #486453",
"Q  c #4E6E5B",
"!  c #516254",
"~  c #546955",
"^  c #5B6359",
"/  c #556A5A",
"(  c #5C6B5D",
")  c #5E705F",
"_  c #62655E",
"`  c #5B6F60",
"'  c #5F7160",
"]  c #617462",
"[  c #657A66",
"{  c #6B7668",
"}  c #667D68",
"|  c #697D69",
" . c #6F7176",
".. c #861C29",
"X. c #A92939",
"o. c #C23C4C",
"O. c #D33242",
"+. c #9E625D",
"@. c #B05E6A",
"#. c #6C806C",
"$. c #798C7F",
"%. c #808C8D",
"&. c #B48883",
"*. c #96B1A5",
"=. c #ADAFA6",
"-. c #BAA6AE",
";. c #A2AFB3",
":. c #FF8694",
">. c #C6E4E4",
",. c #F7E0E7",
/* pixels */
"                            % % % %                             ",
"                          > 2 5 5 4 -                           ",
"                        % 5 s B B t 4 @                         ",
"                      o @ 6 N I I C t 6 >                       ",
"                      o @ 6 m Z Z Z Z B q % #                   ",
"                      > 6 t m C C m n q 2 $ X o                 ",
"                  @ % q m Z B B Z n 6 % @ $ % $ %               ",
"                % > q c C I U ^ ^ U b w w z z b 0 >             ",
"    % % % % % @ 2 t Z Z B U ( ] ] ] ] ] ] ] [ } ! 0 $ o % %     ",
"% > 0 A M b b z M U _ Y Y ^ ) ] ] ] ] { [ [ [ | ( F z M A 0 > % ",
"% < S ] | [ [ ] ] ] ] ' ' ] ' ' ` ] ) ) ` ) ' ' ] ] [ | ] A > % ",
"% > n _ { [ } [ [ ] ' ] ] ] ' ' ] ( ] ) ) ) ' ' ] } [ { _ n 3 % ",
"% > 6 m P ( ] ( ` ] ) ] ) ) ' ' ] ) ) ] ] ' ' ) ( ] ( U m 8 > % ",
"    & 2 n I T K L ` | [ ] ] ] ] ] ] ] ] ] ] ( Y P U B r > % % % ",
"    o o > t V v R I ! / ( ( ( ( ( ( ( ( ` ( Y B m C n q > % % % ",
"    o o + : f o.o.d 7 h G U P G G G G G P P B B B C N m t 8 > % ",
"    4 7 = X u X.X.u X < m Z m m m m m C m m m B B B B I Z t > % ",
"% > A ! k % . * * . @ 6 m Z C m m m m C B B C C B B C Z Z r > % ",
"% 3 W #./ g , ; , 1 w x C Z G U U G Z B B B B B B B B I Z r > % ",
"% 3 D [ #.Q W F F ~ / G C P / ) ' ( P B m B B B B B B Z Z t > % ",
"% > 9 S E +.&.=.*.$.^ Z B P ) #.[ ' U B m B B B C Z C n t 5 & % ",
"    + > p O.:.,.>.%.n a B U ( [ #._ U B m B B B C H B q & #     ",
"      # y ..@.-.;. .x s B G Y ^ ! U G B m B B Z N l q > @       ",
"          # 6 n J Z C C N B N B B B B B C Z Z Z c 5 %           ",
"            O % 6 s C Z Z C Z C B m B B Z Z J P c 4 @           ",
"              @ > t Z Z B B N B B B B C B m Z Z x 5 #           ",
"              o > t J I B t 6 q n I I Z t 5 q Z C 6 # @         ",
"              @ > e B H B q % & e B Z m 8 % 4 n n 5 %           ",
"                  > 6 n B r & # > 5 5 6 q q q 6 4 &             ",
"                  o % r B t > o @ @ o $ q Z n 2 o               ",
"                          t > o # # o                           ",
"                            > @ % %                             "
};
