/* XPM */
static char *player_up1706890859[] = {
/* columns rows colors chars-per-pixel */
"32 32 72 1 ",
"  c None",
". c #010409",
"X c #050C0E",
"o c #090E10",
"O c #0C1414",
"+ c #111718",
"@ c #141A1B",
"# c #191D1E",
"$ c #18201F",
"% c #1A1F20",
"& c #1D2423",
"* c #1E2825",
"= c #242727",
"- c #202A27",
"; c #242628",
": c #262929",
"> c #2B2B2C",
", c #26302C",
"< c #2A342F",
"1 c #2F2C30",
"2 c #322F33",
"3 c #2C3631",
"4 c #2E3932",
"5 c #333434",
"6 c #313B35",
"7 c #3D363A",
"8 c #3D3B3C",
"9 c #324037",
"0 c #37433B",
"q c #3A453D",
"w c #3B483F",
"e c #40403F",
"r c #433E40",
"t c #493E44",
"y c #3C4B41",
"u c #464244",
"i c #4A4346",
"p c #414C44",
"a c #4D4649",
"s c #4E484A",
"d c #50464B",
"f c #524C4D",
"g c #425045",
"h c #465549",
"j c #49564B",
"k c #4A5A4D",
"l c #52524F",
"z c #554E50",
"x c #4D5F50",
"c c #535351",
"v c #565D55",
"b c #585A55",
"n c #5C5D59",
"m c #635F5D",
"M c #4C6050",
"N c #546556",
"B c #586157",
"V c #5A6359",
"C c #576859",
"Z c #5C6C5D",
"A c #5E715F",
"S c #61665E",
"D c #616A5F",
"F c #5F7260",
"G c #636D61",
"H c #627562",
"J c #687466",
"K c #647965",
"L c #667D68",
"P c #697E69",
"I c #6D816D",
"U c #738973",
/* pixels */
"              @@@@              ",
"             &,33,&             ",
"            @4kAAk4@            ",
"           oO6AUUZ6Oo           ",
"           oO4NIIN6Oo           ",
"           -9kZKKZj6-           ",
"  @+@+@  O$wZKAAHHKCw&O  @+++@  ",
" $<wyw3@XX#0VJHHHHIKw@.X@<wpw<$ ",
"@&gHIKj:OO#2abZHHFLAy&oo:kKIHp;@",
"@-hIUPCj9527ifcblbZANp9whCPUPj*@",
"@&yHKFHKFbfdssssafbAHHKHHFFKHp*@",
"@;qnGHKPKDVBBBBbvBZFHKKLKKFHnq&@",
"@%1ibCFZDFHFHHHHHHFFFFAZZHCbt2%@",
"  #:ucncvZKKKKHKHHKHKHZvcncr:#  ",
"  OO;7ttfbZAZZZZZZZZZZbfit7:OO  ",
"  @@+@>rfccljlllllllcccfr>@+@@  ",
"  +@@*6uffiiaaaiiaiaaidfu6*$++  ",
"  XO4xCfiadsaaaasaaaasaalBM4Oo  ",
"  &4jAGfiassssssssssssailSDj4&  ",
"@&yCVcdfadassssssssssssssslVCy*@",
"@-xIGstissssssssssssssssitdGIM-@",
"@-jKDsiassssssssssssssssdidZKh*@",
" %,whvbfasssssssssssssasfbNjw:& ",
"  O@wZDcaassssssssssssaicGZw@O  ",
" &:0kvbfaasssssasssassaafbvj0:$ ",
"@&hHZfiassssssssssssssssaifSHh*@",
"@&pSSfdfssssssssssssssssadfSSp&@",
"@&5tiiiassssssssssssssssaaiai5&@",
"  &>::5iffaasffzzffassffu5:::;  ",
"   OOO=rffsfsiiruuasssffr;OO+   ",
"             8:&&>8             ",
"              &OO&              "
};
