/* XPM */
static char *player_right1706890858[] = {
/* columns rows colors chars-per-pixel */
"32 32 110 2 ",
"   c None",
".  c #140C11",
"X  c #051314",
"o  c #0D1515",
"O  c #081917",
"+  c #031B19",
"@  c #0E1818",
"#  c #101717",
"$  c #111718",
"%  c #131A1A",
"&  c #191E1E",
"*  c #2F161B",
"=  c #0C221F",
"-  c #1A1F20",
";  c #0D2B23",
":  c #152121",
">  c #1D2322",
",  c #122C25",
"<  c #1D282A",
"1  c #1D3129",
"2  c #212526",
"3  c #212926",
"4  c #242728",
"5  c #262A2A",
"6  c #2B2C2D",
"7  c #23312C",
"8  c #2F2C30",
"9  c #263932",
"0  c #2E3A34",
"q  c #333334",
"w  c #303A35",
"e  c #373638",
"r  c #383738",
"t  c #3C3A3C",
"y  c #470E16",
"u  c #46141C",
"i  c #4C1A21",
"p  c #771F28",
"a  c #40363A",
"s  c #413C3E",
"d  c #633336",
"f  c #673038",
"g  c #2B4037",
"h  c #2E413C",
"j  c #324037",
"k  c #34433B",
"l  c #38443C",
"z  c #3B483F",
"x  c #41403F",
"c  c #433E41",
"v  c #683F47",
"b  c #3E4C41",
"n  c #454142",
"m  c #4A4346",
"M  c #414D44",
"N  c #4D4649",
"B  c #4E484A",
"V  c #564147",
"C  c #51474C",
"Z  c #524B4D",
"A  c #425045",
"S  c #465248",
"D  c #48554A",
"F  c #4A5C4D",
"G  c #52524F",
"H  c #564E51",
"J  c #584F52",
"K  c #455551",
"L  c #485D54",
"P  c #545551",
"I  c #5A5354",
"U  c #555B54",
"Y  c #585C56",
"T  c #565D58",
"R  c #6A494C",
"E  c #765A52",
"W  c #486453",
"Q  c #4E6E5B",
"!  c #516254",
"~  c #546955",
"^  c #5B6359",
"/  c #556A5A",
"(  c #5C6B5D",
")  c #5E705F",
"_  c #62655E",
"`  c #5B6F60",
"'  c #5F7160",
"]  c #617462",
"[  c #657A66",
"{  c #6B7668",
"}  c #667D68",
"|  c #697D69",
" . c #6F7176",
".. c #861C29",
"X. c #A92939",
"o. c #C23C4C",
"O. c #D33242",
"+. c #9E625D",
"@. c #B05E6A",
"#. c #6C806C",
"$. c #798C7F",
"%. c #808C8D",
"&. c #B48883",
"*. c #96B1A5",
"=. c #ADAFA6",
"-. c #BAA6AE",
";. c #A2AFB3",
":. c #FF8694",
">. c #C6E4E4",
",. c #F7E0E7",
/* pixels */
"                            % % % %                             ",
"                          & 2 6 5 3 >                           ",
"                        o 5 t B B x 5 %                         ",
"                      > 6 t C I I m 6 $ o                       ",
"                  o & q N Z B Z H m 6 @ o                       ",
"                o o $ 2 q n m B B m t 6 >                       ",
"              % $ # % o % 6 n Z B B C N q % o                   ",
"            > 0 b z l k w M P ^ T Y I C s q 2 $                 ",
"    % % # # 0 ! | ] ] ] ' ] ) ' ] ( U N C C t 2 o % % % % %     ",
"% > 0 A A z D ) | | | ] [ [ ] ] ] ' ^ Y ^ ^ Y S z b M A A w > % ",
"% < S ] | ] ] ) ] ) ) ) ' ' ' ' ] ' ] ] ] ] ] ] ] ] [ | [ A < % ",
"% > n _ { [ } [ ] ) ] ) ' ' ' ' ' ' ` ] ] ] ] [ } } [ { _ x 2 % ",
"% > 6 m P ( ) ( ( ) ' ' ' ' ) ) ' ' ' ' ] ) ` ` ( ] ( P m 8 > % ",
"% % % 2 r G Y G Y ( ] [ ] ] ] ] ] ] ] ] | | ` L K T U n 4 &     ",
"% % % > q m C m C ! ( ( ( ( ( ( ( ( ( ( / W P R v v t > o o     ",
"% > 6 t m m B N B Z P P P G G G G P P P h 1 d o.o.d - X X o     ",
"% > t P P B B B N N m N m m C m m N C c 3 X u X.X.i X ; 5 3     ",
"% > r C Z B B B C N N N C N m m m N H C 6 o . * * . @ k W M > % ",
"% > t Z J C B B B B B N C Z D P P P Z C x w 1 , ; , g / #.! 5 % ",
"% > t Z Z B B B B B B N B P ( ) ] ^ P N P ~ ~ F F W Q } [ D < % ",
"% & 6 r m B G C B B B m N Y ) #.} ' P B D _ $.*.=.&.+.E S 9 > % ",
"    # & q m H C B B N N N U ( [ ] ) P B a x %.>.,.:.O.p 2 +     ",
"      # > q t m Z C B N B G Y ^ ^ Y G B s s  .;.-.@...y o       ",
"          % 6 n G C B B B B B B B B B B C C Z I c 6 %           ",
"          o 2 s P J Z C B B m N C C C B Z Z s 8 & O             ",
"          % 5 n Z B N B B B B N B N B B Z C e > o               ",
"        o % 6 N C e 4 t Z I I m q 6 t B I I t > o               ",
"          o 6 n x 5 % 6 m Z B e > % q B H B e > o               ",
"            > 2 6 e e q 6 5 6 2 @ & r B n 6 >                   ",
"              o > n C e # X o o o > t B e % o                   ",
"                          o % o o > t                           ",
"                            % % @ >                             "
};
