/* XPM */
static char *enermy1707224614[] = {
/* columns rows colors chars-per-pixel */
"32 32 178 2 ",
"   c #100A1A",
".  c #161E1F",
"X  c #1E1827",
"o  c #231E2D",
"O  c #27212F",
"+  c #2A2534",
"@  c #332E3C",
"#  c #53482E",
"$  c #4E4831",
"%  c #524A33",
"&  c #5C4E31",
"*  c #5C5136",
"=  c #59533C",
"-  c #675A3B",
";  c #715F3A",
":  c #74623E",
">  c #7B673D",
",  c #2C3F44",
"<  c #413D49",
"1  c #2E4144",
"2  c #374746",
"3  c #384C4E",
"4  c #3C5153",
"5  c #3C5459",
"6  c #3C585F",
"7  c #3F616E",
"8  c #494F43",
"9  c #4C554A",
"0  c #575844",
"q  c #51594E",
"w  c #514C57",
"e  c #4B5C58",
"r  c #625B40",
"t  c #4F615D",
"y  c #676349",
"u  c #776B48",
"i  c #636955",
"p  c #4C6263",
"a  c #44626A",
"s  c #4E696C",
"d  c #526865",
"f  c #5A726F",
"g  c #446A77",
"h  c #4E6D74",
"j  c #577577",
"k  c #747079",
"l  c #826C3F",
"z  c #846D42",
"x  c #827047",
"c  c #887245",
"v  c #8D7749",
"b  c #947C4B",
"n  c #8C7E52",
"m  c #9C814D",
"M  c #A4864E",
"N  c #A48A54",
"B  c #AC8D52",
"V  c #AE945A",
"C  c #B29255",
"Z  c #B79758",
"A  c #B89658",
"S  c #BB9A59",
"D  c #BC9F60",
"F  c #C19E5C",
"G  c #C6A35E",
"H  c #C1A362",
"J  c #DDB366",
"K  c #D8B269",
"L  c #E1B76A",
"P  c #E2B96B",
"I  c #EABE6D",
"U  c #EDC26E",
"Y  c #F0C26F",
"T  c #EEC370",
"R  c #EAC878",
"E  c #F1C471",
"W  c #F3CA76",
"Q  c #F5CD7A",
"!  c #F7D17D",
"~  c #F8D27E",
"^  c #517E8C",
"/  c #7D7A83",
"(  c #5A828E",
")  c #578796",
"_  c #598B9C",
"`  c #5C90A2",
"'  c #6697A8",
"]  c #669AAB",
"[  c #6DA3B5",
"{  c #6BA5B8",
"}  c #6CA6BA",
"|  c #71A9BC",
" . c #73AEC2",
".. c #7CB2C4",
"X. c #76B5CB",
"o. c #7AB6CB",
"O. c #77B9CF",
"+. c #7EB9CD",
"@. c #77BBD4",
"#. c #7BBDD4",
"$. c #7EC0D7",
"%. c #7DC1DA",
"&. c #7EC7E0",
"*. c #7EC8E2",
"=. c #89878E",
"-. c #8F8C94",
";. c #8D9A9E",
":. c #97959B",
">. c #929D9F",
",. c #999E9F",
"<. c #939FA2",
"1. c #A19FA5",
"2. c #89A2A9",
"3. c #8DA7AE",
"4. c #94A1A5",
"5. c #9BA3A5",
"6. c #95A6AB",
"7. c #9AA6A9",
"8. c #95A8AE",
"9. c #9EA9AC",
"0. c #88ABB6",
"q. c #8CABB6",
"w. c #83AEBC",
"e. c #92ABB4",
"r. c #9BADB1",
"t. c #8AB1BD",
"y. c #9EB0B4",
"u. c #94B3BD",
"i. c #9AB5BE",
"p. c #A0A5A5",
"a. c #A3AAAB",
"s. c #ACAAAF",
"d. c #A6AEB0",
"f. c #ABB3B5",
"g. c #A5B3B8",
"h. c #B4B5B9",
"j. c #B3BBBC",
"k. c #B9BEBF",
"l. c #F9D682",
"z. c #FBD985",
"x. c #FDDE8A",
"c. c #FDE18D",
"v. c #FFE692",
"b. c #84B4C4",
"n. c #8DB7C5",
"m. c #84BACC",
"M. c #98B8C3",
"N. c #82BDD0",
"B. c #8CBFD1",
"V. c #BCBEC1",
"C. c #83C5DC",
"Z. c #89C5D9",
"A. c #93C8DA",
"S. c #BAC2C4",
"D. c #BDC7CA",
"F. c #83CAE3",
"G. c #88CCE4",
"H. c #C0C7C9",
"J. c #C8C7CB",
"K. c #C5CBCD",
"L. c #C9CED0",
"P. c #CCD2D3",
"I. c #D1D4D5",
"U. c #D3D7D8",
"Y. c #D4D9DA",
"T. c #DADADC",
"R. c #DEE2E3",
"E. c #E3E5E5",
"W. c #E6E7E8",
"Q. c #E8E7E8",
"!. c #EAECED",
"~. c #F3F1EF",
"^. c #EEEFF0",
"/. c #F0EFF1",
"(. c #EFF2F2",
"). c #F5F6F6",
"_. c #F6F7F8",
"`. c #FFFFFF",
/* pixels */
"U T T T T U T T T S 9 q S T E T T T T T I E E I T T E E T T T U ",
"T E E E E E Y E I % @. .- E I E E E E E E E E Q W Q v.Q l.l.E T ",
"T E E E Y Q ! E ! H q i K c = S E E E E E E E z.l.E l.I Q Q E U ",
"U E E E Y ~ z.E z.Q J P n ) %.p C E E E E G E I E l.W W z.E E T ",
"T E E E E Y Q z.E z.Q u ' F.$.#.h b E E v p b T E l.Q E l.W E T ",
"T E E E E J c.~ T Q = ] C.O.q.Z.} & Y : _  .$ E E ~ E x.E E E T ",
"T E E E C q Z E z.Z e #.@.w.p.N. .r u ` G.[ # E W x.E Q E T E T ",
"T E T M j | % E W %  .%...8.5.q.F.^ 7 A.d.o.d B E E E E Y z.x.T ",
"T E I * } F.( x K $ { N.6.9.d.5.n.) g u.,.u.C.h b E E E E E E T ",
"T W z ^ C.b.F._ 2 . ] r.a.E.`.H.4...2.f.S.5.8.C.^ z T T l.x.W T ",
"E z.l ^ Z.8.e.m.&.) 2.6.H.`.`.`.L.>.j.).`.I.5.6.Z._ y I E T E T ",
"T Y > ) G.7.p.7.b.C.6.d.(.`.`.`.!.V._.).D.!.R.5.0.F.' ; E L I T ",
"U E B p N.r.7.5.5.7.7.P.`.`.`.`.`.`.`.D.[ g.`.W.a.n. .% L r i P ",
"T E E S e w.7.S.V.;.d.`.`.`.`.`.`.`.`.S.{ y._.`.L.<.m.f 0 X.6 F ",
"T E E E # [ 6.P._.S.R.`.`.`.`.`.`.`.`.K.r.!.`.`.L.<.N.^ a G.| 8 ",
"I W c.D e ..<.K.`.`.`.`.`.`.`.`.`.`.`.`.`.`.`.(.h.8.} g e.n.%., ",
"T T B p %.u.>.L.`._.P.).`.`.`.`.`.`.`.`.`.`.`.I.;.4.q.i.a.t.#.2 ",
"U m j %.m.4.f.).`.K.;.K.`.`.`.Q.`.`.`.`.`.`.`.P.4.j.Q.~.K.B.7 V ",
"S 4 F.@.e.5.P.`.`.).I._.`.`.V.w s.`.`.`.`.`.`.R.E.`.`.I.u.} 0 R ",
"C 6 C.O.3.f.`.`.`.`.`.`./.`.k   w _.^.`.`.`.`.`.`.`.H.r.' = R ! ",
"8 | $.q.9.!.`.`.`.`.`.h.< :.T./ U.s.< 1.).`.`.`.`.!.9.q.O.f N R ",
"1 C.@.0.a.).`.`.`.`.Q.@ O X h.`.T.+ o o J.`.`.`.`.h.2.O.+.G.6 S ",
"1 $.$.q.a._.`.`.`.`._.1.@ / W.`.).-.+ =.!.`.`.`.`.W.d.0.O.F.5 Z ",
"8 | @.q.a.W.W.K.R._.`.`.W.`.`.`.`.`.E.`.`.E.L.Y.`.(.d.6.#.O.q G ",
"Z 5 F.b.4.f.`.E.S.K.L.P.P.P.P.L.P.P.P.P.P.H.P.`.`.j.4.t.F.g m E ",
"P x ( *.u.5.K.`.`.E.U.Y.Y.Y.Y.Y.U.Y.Y.Y.Y.`.`.`.U.9.w.*.' r J U ",
"U Y b h C.e.>.K.!.!.`.`.`.`.`.`.`.`.`.`.`.!.!.P.4...@.C.a M E W ",
"U W Y M s %.u.5.4.5.K.R.`.`.`.`.`.`.(.P.P.9.,.8.m.%.%.s M E T c.",
"E I E E A t ..m.M.9.4.9.j.V.k.V.k.k.d.>.5.8.Z.m.O.h 9 Z E E Y Q ",
"E l.E E E G * p ] O.Z.M.3.3.3.3.3.q.8.i.Z.#.] s = V P U E Y z.z.",
"E x.U E E E T F ; t g ( %.%.@.%.%.%.C._ g s : B E x.x.! Y U W W ",
"T T T T T T T T U G B c 4 4 3 3 3 3 4 u B S U T T T E W U U U U "
};
