/* XPM */
static char *exit21707567199[] = {
/* columns rows colors chars-per-pixel */
"32 32 117 2 ",
"   c #000000",
".  c #0A0603",
"X  c #0D0907",
"o  c #0C0C0C",
"O  c #110B07",
"+  c #150D08",
"@  c #14110F",
"#  c #1C130C",
"$  c #131313",
"%  c #1E1610",
"&  c #15171C",
"*  c #1B1A1C",
"=  c #20160F",
"-  c #211710",
";  c #221A15",
":  c #221C1A",
">  c #22201F",
",  c #1F1D20",
"<  c #211F20",
"1  c #242323",
"2  c #292323",
"3  c #2D2926",
"4  c #2B2A29",
"5  c #312B26",
"6  c #312D2A",
"7  c #38312E",
"8  c #313131",
"9  c #3B3B3B",
"0  c #413A32",
"q  c #483E32",
"w  c #423D39",
"e  c #4F4333",
"r  c #46403B",
"t  c #4A433C",
"y  c #574A36",
"u  c #534A39",
"i  c #5A4E3D",
"p  c #5E513D",
"a  c #69573A",
"s  c #6C593C",
"d  c #434343",
"f  c #4B4643",
"g  c #4E4841",
"h  c #4C4C4C",
"j  c #534A41",
"k  c #554F4B",
"l  c #545353",
"z  c #5E5854",
"x  c #5D5D5D",
"c  c #685B48",
"v  c #635B54",
"b  c #76664A",
"n  c #706451",
"m  c #636363",
"M  c #6C6C6C",
"N  c #726A63",
"B  c #786F69",
"V  c #7A726B",
"C  c #747474",
"Z  c #7E7E7E",
"A  c #827049",
"S  c #867351",
"D  c #897754",
"F  c #8B7956",
"G  c #82735C",
"H  c #8C7B5B",
"J  c #907E60",
"K  c #837A73",
"L  c #A0885A",
"P  c #A88D58",
"I  c #9C8963",
"U  c #8B827C",
"Y  c #A18B65",
"T  c #A88E61",
"R  c #B59865",
"E  c #BCA26D",
"W  c #CCAB6B",
"Q  c #C4A770",
"!  c #E5BB6E",
"~  c #EABE6E",
"^  c #E4BD77",
"/  c #E8BE70",
"(  c #E3BE7A",
")  c #EDC26E",
"_  c #F0C26F",
"`  c #EEC371",
"'  c #E7C17C",
"]  c #EFCC7A",
"[  c #F1C471",
"{  c #F3C976",
"}  c #F0C779",
"|  c #F4CC7A",
" . c #F4D17F",
".. c #F8D17D",
"X. c #828282",
"o. c #8B8B8B",
"O. c #938A83",
"+. c #978F88",
"@. c #9C948D",
"#. c #949494",
"$. c #9D9D9D",
"%. c #A2A2A2",
"&. c #ACACAC",
"*. c #B4B4B4",
"=. c #BBBBBB",
"-. c #D2B986",
";. c #EBC880",
":. c #E1CB8D",
">. c #F5D484",
",. c #F9D682",
"<. c #F7D788",
"1. c #F7DD8A",
"2. c #FDE08C",
"3. c #FFE692",
"4. c #C3C3C3",
"5. c #CDCDCD",
"6. c #D3D3D3",
/* pixels */
") ` _ ` ) ) [ ) ` ` ) ) ` ` W b b Q ` ` ` ` [ _ ) ` [ [ [ [ ` ) ",
") [ [ [ [ [ _ [ _ ` ( ;.H j 9 * * 5 j n ( ( ^ | { { 3.| ,..._ ` ",
"` [ [ [ [ | ..} >.J 3 6 , & * ; % * * * 5 3 b <.<.{ ..~ | | _ ` ",
") [ [ [ _ ..E r g : * * % # O     . X # * * 4 t w Y { { ..{ [ ) ",
"` [ [ [ [ _ P * & #                     . . # & & A | _ ,.| _ ) ",
") [ [ [ ^ s u ;                                 = q a :.| _ _ ) ",
"` [ [ [ ' 1 & #                                 O & & -.[ [ _ [ ",
"_ [ [ E Y * % .                                   # * I R >.2.[ ",
"` [ [ r & ;                                         ; * 2 ;.{ ) ",
"[ { ( t : ;                                         - * 4 :.{ ~ ",
"[ ,.i 1 2 .                                           : < 0 ! [ ",
"` [ e * *                                             : * 5 / ` ",
"` I 5 1 +                                               : < G ` ",
"` e : 2                                                 ; * 9 } ",
"` c * 2 .                                               : * t ` ",
") y 1 2 .                                               : * t } ",
"` y 1 2 .                                               : * t ` ",
"` p < 2 .                                               : < 0 1.",
") p < 2                                                 : , 0 >.",
"` p : 1 .                                               ; , 0 ] ",
"` a , 2 .                                               : , 0  .",
") p < 1 .                     .   .     . o . . . o o o : 1 0 ! ",
"/ a < 2 .           X o o o . o o o $ o & , , 1 1 4 1 1 3 1 0 ~ ",
"` i < 2 .       o o o X o $ $ * , 1 4 4 8 9 9 9 d d r d 7 * 0 ~ ",
"` i < 2 X . o o o o $ $ * 4 6 9 9 d h l l x m x x m x m w , w ) ",
"` a < 2 @ $ $ o $ & 1 8 9 d h x m M M C Z o.o.X.X.Z Z X.f , 0 ! ",
"` p < 2 & $ * 4 9 l x x m C Z o.#.#.$.#.$.$.$.$.%.%.$.$.k * 9 [ ",
"/ p < 2 3 9 h x M C Z #.#.%.&.&.*.*.*.*.*.&.*.=.4.=.=.=.z > 0 1.",
"` a : 2 d x m C Z #.$.%.&.=.=.=.4.4.5.4.4.4.4.5.6.6.6.6.m * 0 } ",
"` u * 1 t j v N B B K K V V U +.@.O.U U K K K @.@.@.O.O.z : 6 >.",
"` -.T q * * * & , & * * , , * * & * * , * , * * & * * * 3 T E { ",
") ` ) R D D F S S D D A F H F F H D F D F A H F F D D F L ) ) ) "
};
