/* XPM */
static char *item51707309088[] = {
/* columns rows colors chars-per-pixel */
"32 32 41 1 ",
"  c #180E0E",
". c #5A595A",
"X c #EFBF6C",
"o c #EDC16E",
"O c #ECC36E",
"+ c #F0C26F",
"@ c #EEC370",
"# c #EEC471",
"$ c #EFC471",
"% c #EFC672",
"& c #F0C370",
"* c #F1C471",
"= c #F2C471",
"- c #F2C572",
"; c #F2C774",
": c #F3C774",
"> c #F0C874",
", c #F3C874",
"< c #F3C975",
"1 c #F4CA76",
"2 c #F4CA77",
"3 c #F4CB78",
"4 c #F5CD79",
"5 c #F6CE7A",
"6 c #F6CF7C",
"7 c #F4D07C",
"8 c #F7D17D",
"9 c #F8D17E",
"0 c #B3B1B3",
"q c #F7D581",
"w c #F9D481",
"e c #FAD683",
"r c #FAD784",
"t c #FBD884",
"y c #FAD885",
"u c #FBDE89",
"i c #FCDF8B",
"p c #FFDF8B",
"a c #FDE08C",
"s c #FFE692",
"d c white",
/* pixels */
"O@@@@@@@@@@@*@&&@@@@&@@@@@$$$$OO",
"@****&+*+&&4:@&********313s6y9&@",
"@***&48*811u3O+&******&tr&9X63&@",
"@***+9y*r8X&r1&&*****&&&&e31r:&@",
"&****+4e*r4ea;&*********&e4*e<+@",
"@****+a9*61;<+**********&61i1+&@",
"@*****1*y;a9+&**********1i&4<&&@",
"@*****&*<*<*************&;+++ra&",
"@&**&-&-&-&=**    **********-1:&",
"*1&*-&-&-&-&  dddd *******&&9a1O",
"*e&&&-&-**& dd00000 ********&&&&",
"$&**-&-&*& d0000000. ****&&&&*&@",
"@*&-&-&-* d0000d000dd *++16O&**&",
"@*&&-&-&* d000d0.0dd. &ye4iX&**@",
"@&&O&-&-* d00d00.dd0d &11&*89&*@",
"O1ae&&-&* d000d0dd0d. i*ie<s9&*@",
"$*******& d000ddd0d0. 411&1*****",
"@*******& d000dd.d00. +yt4t+*+<a",
"@******** d00dd0d000. *++1e+&Oeq",
"@******** d0dd0d0000. ***+++*$48",
"@********* dd0d0000. ***&&&&**99",
"@********** dd0000. ****&&++**+O",
"@***********  .... *****&3ieO*&@",
"@***********-&    ******&-1:&**@",
"@*************&-********-&=&-&-&",
"@**************&********&-&-&-&&",
"@**************&********-=&&**&3",
"@*************O&********&X&=**&i",
"O+**********&&qr********rr9&*&&1",
"*e&*********&&44@*******641&*&rr",
";i&*******&@9i<ry&*******iu8@@11",
"O$@@@@@@@@@@&1$$<@@$@@@@@*>*@@XO"
};
