/* XPM */
static char *item31707309087[] = {
/* columns rows colors chars-per-pixel */
"32 32 40 1 ",
"  c #180E0E",
". c #5A595A",
"X c #EEBE6B",
"o c #EFBF6C",
"O c #ECC36E",
"+ c #EEC26F",
"@ c #F0C26F",
"# c #EEC370",
"$ c #EFC471",
"% c #EFC572",
"& c #F0C370",
"* c #F1C471",
"= c #F2C471",
"- c #F2C572",
"; c #F2C774",
": c #F3C975",
"> c #F4C976",
", c #F4CA76",
"< c #F4CB78",
"1 c #F5CD79",
"2 c #F5CE7B",
"3 c #F6CF7C",
"4 c #F7D17D",
"5 c #F5D37F",
"6 c #F8D17E",
"7 c #B3B1B3",
"8 c #F7D480",
"9 c #F9D481",
"0 c #FAD683",
"q c #FAD784",
"w c #FBD884",
"e c #FAD885",
"r c #FBDE89",
"t c #FDDC88",
"y c #FEDE8A",
"u c #FFDF8B",
"i c #FCE18B",
"p c #FDE08C",
"a c #FFE692",
"s c white",
/* pixels */
"O##########&&#&#####&#####;#&$$#",
"#****&@*@&&1,&*&*******<,<a1q4##",
"#***&14*4,<t,&&&******&eq&6o1<##",
"#***@6e*04O&8:&&*****&&&&q<,q,&#",
"&****@10*q10u;&*********&91*0:&#",
"#****@p6*3,;:&**********;4,t:@&#",
"#*****,*q;p6#&**********;t&1:#&#",
"#*****&*,&,**&***********:@&&qu&",
"#&**&-&-&-&=***  &&-&-&-*****:;#",
"*,&*-&-&-&-&** ss -&-&-&**&&9u:#",
"*0&&&-&-&-&-&* s. &-&-&-****&&*#",
"$&**-&-&-&-&&& s. -&-&-&*&&&&*##",
"#*&-&-&-&-=&& s77. ****@O,4&&**&",
"#*&&-&-&-&&&6 s7.. **&&eq1to&**#",
"#&&O&-&-&-&=, s7.. *&&&1,&*46&*#",
"O,p0&&-&-&=&o s7.. *@qu&tq:a6&*#",
"&**;****&*,** s7.. *&e,,,&,***@*",
"#*&*****&<p1q s7.. **&-we,w@**,i",
"#*********@@6 s7.. &***@@,6@*&w0",
"#***********@ s... @****-@*-*&11",
"#************* 7. @&****&&&&*&64",
"#************* 7. &******&@&**#O",
"#************* .. ******&,t9&*&#",
"#**************  *********,,&*&#",
"#*************************&=&-&&",
"#*************&&**********-&-&&&",
"#**************&*********&&=**&<",
"#*************&&********&&&&***u",
"#&**********&&8e********qq4&*&&<",
"*0&*********&O11#*******3<,&*&0q",
";t&&******&#6u:qe&******&ur6&&:1",
"O*#########$$;*#,##$####$&;##OOO"
};
