/* XPM */
static char *player_up1707223857[] = {
/* columns rows colors chars-per-pixel */
"32 32 179 2 ",
"   c #010201",
".  c #070A07",
"X  c #060709",
"o  c #0B0C0C",
"O  c #110A06",
"+  c #1B150E",
"@  c #080C18",
"#  c #0C1217",
"$  c #191515",
"%  c #1A1519",
"&  c #210D0D",
"*  c #2A1411",
"=  c #2D1914",
"-  c #231B18",
";  c #371E1A",
":  c #292215",
">  c #2E241C",
",  c #33221C",
"<  c #312A1A",
"1  c #161A25",
"2  c #151B2C",
"3  c #292423",
"4  c #342925",
"5  c #3C2924",
"6  c #332B2A",
"7  c #202437",
"8  c #2D2A32",
"9  c #2C2A3A",
"0  c #342E30",
"q  c #383132",
"w  c #3A333E",
"e  c #511B1B",
"r  c #52241F",
"t  c #4E341F",
"y  c #642B1A",
"u  c #442A23",
"i  c #452825",
"p  c #562B21",
"a  c #413823",
"s  c #4C322C",
"d  c #51352C",
"f  c #563E2C",
"g  c #563934",
"h  c #5D3E36",
"j  c #652D21",
"k  c #613B2D",
"l  c #6F3739",
"z  c #733C3E",
"x  c #63423A",
"c  c #6A463E",
"v  c #6B483F",
"b  c #675637",
"n  c #7B5B37",
"m  c #796339",
"M  c #193453",
"N  c #28294A",
"B  c #393444",
"V  c #2E3453",
"C  c #35355D",
"Z  c #2A3B6C",
"A  c #393B66",
"S  c #353E6A",
"D  c #433C41",
"F  c #403C61",
"G  c #3A4155",
"H  c #39406B",
"J  c #374473",
"K  c #35467D",
"L  c #484752",
"P  c #494955",
"I  c #6C4941",
"U  c #795749",
"Y  c #444369",
"T  c #5B5A6D",
"R  c #464877",
"E  c #5B5D70",
"W  c #654864",
"Q  c #764D62",
"!  c #7D6E79",
"~  c #AB3235",
"^  c #DC3E3E",
"/  c #933D46",
"(  c #8A4A46",
")  c #9A5D51",
"_  c #AB535D",
"`  c #85694F",
"'  c #947746",
"]  c #9E6356",
"[  c #A37F4B",
"{  c #AA7B53",
"}  c #817069",
"|  c #937762",
" . c #8C7D72",
".. c #A97061",
"X. c #D55B47",
"o. c #D55B48",
"O. c #D25959",
"+. c #E34141",
"@. c #E15E46",
"#. c #FA6441",
"$. c #FF744C",
"%. c #F97F67",
"&. c #9E8857",
"*. c #A6824D",
"=. c #AD8D51",
"-. c #B18C53",
";. c #B29155",
":. c #B99859",
">. c #98826E",
",. c #AC916E",
"<. c #B7976A",
"1. c #A99374",
"2. c #B39671",
"3. c #BEA273",
"4. c #C18F5E",
"5. c #C7985C",
"6. c #C8A05D",
"7. c #FC8167",
"8. c #FA8168",
"9. c #EE9C77",
"0. c #CBA767",
"q. c #D7A866",
"w. c #DCAD69",
"e. c #DCB267",
"r. c #CDAE76",
"t. c #ECBF6D",
"y. c #E3BF74",
"u. c #EDC26F",
"i. c #F0C26F",
"p. c #EEC370",
"a. c #F1C471",
"s. c #F3CA76",
"d. c #F5CD7A",
"f. c #F6D17D",
"g. c #F8D17E",
"h. c #384A83",
"j. c #3A5986",
"k. c #3B5C8A",
"l. c #364F98",
"z. c #3A579B",
"x. c #3F629C",
"c. c #3956A7",
"v. c #3C73B7",
"b. c #7E7688",
"n. c #417BC6",
"m. c #4179C8",
"M. c #807B8C",
"N. c #7F80A4",
"B. c #4381CF",
"V. c #4B94EE",
"C. c #8F8497",
"Z. c #AE9C85",
"A. c #8282A5",
"S. c #908EA5",
"D. c #9191AB",
"F. c #9597B5",
"G. c #F8B68B",
"H. c #F9D682",
"J. c #F9D883",
"K. c #FDDE8A",
"L. c #FDE18C",
"P. c #FFE692",
"I. c #FFE3AF",
"U. c #ACACCD",
"Y. c #AFAFD0",
"T. c #B1B1D1",
"R. c #B6B7D8",
"E. c #BABADA",
"W. c #BEBEE1",
"Q. c #BEC0E4",
"!. c #C0C6DD",
"~. c #C1C1E4",
"^. c #C6C7EC",
"/. c #D1D1E7",
"(. c #D2D2E8",
"). c #DCDCF0",
"_. c #E7EFFF",
"`. c #E9E9F9",
"'. c #F2F9FF",
/* pixels */
"u.p.p.p.p.u.p.p.a.p.p.p.p.p.:.. .   :.a.p.p.p.u.u.p.a.p.p.a.p.p.",
"p.a.a.a.a.a.i.a.a.<.,.2.,.1.| y j y | ,.,.,.,.3.s.s.P.d.J.H.t.p.",
"u.a.a.a.a.d.f.a.d.T S S S Z Q $.$.$.Q Z S S S T J.p.H.t.g.s.a.p.",
"p.a.a.a.i.g.J.>.E / ~ X.o.o.@.#.#.#.@.o.o.X.~ / T 1.s.s.H.a.a.p.",
"a.a.a.a.a.i.f. .S _ O.%.7.7.7.%.%.%.8.8.8.%.O._ S  .d.a.H.a.a.p.",
"p.a.a.a.a.i.K.>.N !.'._._._._._._._._._._._.'.!.N >.s.J.s.a.a.p.",
"p.a.a.a.a.0.} M.A./.`.`.`.`.`.`.`.`.`.).`.`.`./.N.b.! r.a.a.a.p.",
"p.a.a.a.a.,.C A.E.).`.`.`.`.`.`.`.`.`.`.`.`.`.).W.A.C ,.a.J.K.a.",
"p.a.a.a.a.2.C A.W.Y.T.`.`.`.`._.'.`.`.`.`.`.T.T.E.N.C <.a.s.s.u.",
"a.s.a.a.a.<.C M.E.Y.Y./.(.(.(.(.(.(.(.(.(./.Y.T.E.A.C ,.f.L.s.u.",
"a.H.t.a.a.<.S M.E.Y.Y.U.U.U.Y.T.T.T.U.U.U.U.Y.T.R.N.A <.i.u.i.u.",
"a.a.a.e.p g D C.W.R.E.Y.Y.R.S.q D q S.R.Y.Y.R.R.Q.C.g d t e.s.p.",
"p.a.0.-.; i k ! F.D.D.Y.Y.R.S.q D q D.R.T.U.D.D.F.! k u , -.q.u.",
"p.a.= ; v x v -       T.~.W.~.^.^.^.~.W.~.T.      = v x v , * u.",
"p.a.[ ' u p x s 5 5 5 P P P P P P P P P P L 5 5 5 s x s u ' *.i.",
"p.s.L.y.= u x x x I x                       c c x x x u * e.a.i.",
"p.a.a.a.u.*.* s I x k x h h h h h h h h x x h x c d = *.t.a.a.a.",
"p.a.a.a.a.5.n f 5 g x s s x x x k x x x s s x g 5 f m 6.a.i.s.L.",
"p.a.a.a.a.a.a.m   s v * = I x k h x x x = * c s   m g.i.a.i.g.H.",
"p.a.a.a.a.;.> 9 A % O g d X = v x I = o d g O % A 9 : ;.a.a.d.f.",
"u.a.a.t.q.{ 4 B Y 2 @ s s @ % g s g $ . s s @ 2 Y B 4 *.w.t.d.f.",
"p.a.a.w.l { I.` $ h.c.    R V       $ 5     c.h.$ ` I...z w.u.u.",
"a.a.a.w.z ] G.U - h.z.N 9 w 9 % % $ V J N N z.K - U G.] z w.a.p.",
"p.a.a.w.z ] 9.U % K l.Y H 4 6 q q 4 h.c.R Y l.K - U 9.) z w.a.p.",
"p.a.a.a.t.5.( ;   . X   # B.n.n.n.n.n.n.n.v.X .   , ( 4.t.a.a.p.",
"p.a.a.a.a.<.W F M 1 + 2 7 k.j.j.j.j.k.j.x.k.$ % 2 x { q.a.a.a.t.",
"p.a.a.a.p.Z.l.m.V.G 4 Y Y > ; > , , > = A F 4 w h.>.a.a.a.a.a.s.",
"p.a.a.a.p.{ # 1 2 # o 8 0 6 3 X o o 3 6 8 8 O o - U i.a.a.a.a.L.",
"u.i.a.a.a.=., +   & * i a 3 3 < < < > 3 s i * & . b g.i.a.a.t.s.",
"a.H.a.a.a.a.p.b . ~ +.^ ~ . 5 f.a.a.5   ~ ^ +.~   b s.u.a.a.J.J.",
"s.K.i.a.a.a.p.:.' p e e p &.;.J.K.a.:.' r e e f ' 0.K.H.i.a.s.s.",
"u.p.p.p.p.p.p.p.i.a . . : d.p.a.a.p.p.p.: . . 5 p.s.a.a.p.p.p.u."
};
