/* XPM */
static char *wall1706890857[] = {
/* columns rows colors chars-per-pixel */
"32 32 43 1 ",
"  c #617362",
". c #667664",
"X c #677865",
"o c #687966",
"O c #697967",
"+ c #6A7A67",
"@ c #6E7C66",
"# c #6E7D67",
"$ c #6B7B68",
"% c #6D7C6A",
"& c #6D7D6A",
"* c #707C64",
"= c #717F6B",
"- c #71806B",
"; c #73806B",
": c #74816A",
"> c #75816A",
", c #74816B",
"< c #74816C",
"1 c #76846F",
"2 c #778570",
"3 c #788570",
"4 c #7B8772",
"5 c #7A8872",
"6 c #7B8872",
"7 c #7B8873",
"8 c #7E8C76",
"9 c #7F8C76",
"0 c #808D77",
"q c #838F78",
"w c #87927B",
"e c #88937C",
"r c #89947C",
"t c #8A947C",
"y c #8A947D",
"u c #8B967E",
"i c #8C977F",
"p c #8D977F",
"a c #8E9880",
"s c #8F9880",
"d c #919B81",
"f c #939B83",
"g c #939D83",
/* pixels */
"*,<*=<,,==<=,,==,,,,--<=,,=;@,;*",
";gdeesppraaappppppppraaapppwrgg;",
",dpdq+++%$&&+++%++++&O&.+++wppp,",
"@rsd4 ++$X.X+++XX+++OXX&++ 4ggr*",
"-ww7 =4.=.-<7-223114;;X-+1; 50r;",
"-sX ;2X%4O$+$OXOX+.%X&X4%X1, %p,",
"<a&.2.;2$$eewewepwrwww&&1;X1++p,",
",p&X.&4&85erasasrpppse44%5%.+@p,",
",p++-7&7s8888888q8q88q0g5%5;&$r-",
",p++O.%78sssssssssrpasr85%X+.&s<",
"<s++-$er7assaraaarppiis8rw.-++a=",
",r++-&ea8aaaasrsaspppps8rp%;++a-",
",p+.1%ar8sarsaaraaarpps8pe$<++p=",
",p++4.rr8saaraasrsaspis8re+4X%p=",
",p++;.rs8sarsrsrsrariis8peX<++p,",
",p++1%rr8saaaaaaaaasaas8sr+3++p,",
"=a%.2.wr7asrsrsraaararsqaw$2X%a=",
"=a$%-$aa8aaaaaaarsasass8sw$-X$a=",
"=a%.2&ra8ssaaraasrararaqrw$2X=a=",
"=a.%2.rr8sraasraaaasasr8aw$2X+a,",
"=p++2%wa8saaaaaaarssara8pw+4%%p=",
",a++-.wr8saaasraasrasss8pw.=XOp=",
"=p+X$.$4qrsassssasasasa84%%.X%p=",
",p++-4&4g88888888888888d4%4=X*p>",
",p=+.%1%55raraarriripr55%<%.XXs;",
",p++<%;3%%wrerrweieerw%%4-+2%%i;",
",p+ ;1X%5X.%$&.%%++++XX5%+2= +p;",
",wq4 ;5.-X;;-42-4-111;X;.2= 5wr;",
"@rgg5 %X++++++++&.&.++.+++ 6dpe%",
"=grpwX++++++++++.&$$++++++%qpdg,",
"=ggrrprspppprsppppaapppppppttpg,",
"*,<@,;<-,,,,,,,,,;<%,,,,,,,,*,,+"
};
