/* XPM */
static char *player_right1707223858[] = {
/* columns rows colors chars-per-pixel */
"32 32 201 2 ",
"   c #010101",
".  c #0A0403",
"X  c #04050B",
"o  c #080C0A",
"O  c #0C0C0D",
"+  c #180906",
"@  c #120C09",
"#  c #13110C",
"$  c #1A120D",
"%  c #131112",
"&  c #1C1312",
"*  c #1C1A1A",
"=  c #250C0C",
"-  c #3C0A06",
";  c #25120E",
":  c #2A130D",
">  c #231C12",
",  c #2C1A14",
"<  c #3A1111",
"1  c #341D18",
"2  c #2B241C",
"3  c #32221E",
"4  c #332A18",
"5  c #1C2222",
"6  c #242425",
"7  c #2B2928",
"8  c #322623",
"9  c #3A2621",
"0  c #352C2B",
"q  c #3C3129",
"w  c #28263A",
"e  c #312D3B",
"r  c #3C373B",
"t  c #421513",
"y  c #5B1513",
"u  c #5B1A1A",
"i  c #452119",
"p  c #5D281C",
"a  c #442A23",
"s  c #452A24",
"d  c #4C2D2A",
"f  c #59282A",
"g  c #473925",
"h  c #54372C",
"j  c #42393A",
"k  c #543730",
"l  c #553831",
"z  c #5B3D35",
"x  c #652F2C",
"c  c #732121",
"v  c #782222",
"b  c #673334",
"n  c #743937",
"m  c #58492C",
"M  c #5B4B38",
"N  c #624239",
"B  c #6A453C",
"V  c #684A3E",
"C  c #675437",
"Z  c #745A38",
"A  c #7F673B",
"S  c #2A324A",
"D  c #363242",
"F  c #37345B",
"G  c #3B3A61",
"H  c #443C44",
"J  c #403A5A",
"K  c #723E44",
"L  c #3B426A",
"P  c #3B467C",
"I  c #4A474A",
"U  c #55424D",
"Y  c #514E52",
"T  c #4C5154",
"R  c #565356",
"E  c #6C4941",
"W  c #784442",
"Q  c #78504B",
"!  c #684E50",
"~  c #734650",
"^  c #764B5E",
"/  c #444366",
"(  c #44426E",
")  c #4F5172",
"_  c #735764",
"`  c #6D6675",
"'  c #992D2D",
"]  c #8D3636",
"[  c #963D3B",
"{  c #BE2828",
"}  c #AB3839",
"|  c #BB3436",
" . c #BF3738",
".. c #C22C29",
"X. c #D7382E",
"o. c #C13737",
"O. c #C23938",
"+. c #CD3B3B",
"@. c #D33D3D",
"#. c #DA3E3E",
"$. c #8B4438",
"%. c #B2523D",
"&. c #81683D",
"*. c #D54A3E",
"=. c #D95939",
"-. c #FF6539",
";. c #8E5448",
":. c #8B544D",
">. c #92574C",
",. c #93654A",
"<. c #987B47",
"1. c #A66D56",
"2. c #AC7657",
"3. c #88756C",
"4. c #9D7B61",
"5. c #A37763",
"6. c #EB4343",
"7. c #F05347",
"8. c #EC6144",
"9. c #FF6C46",
"0. c #FB6B4A",
"q. c #FF764E",
"w. c #A78A52",
"e. c #AC8E56",
"r. c #B79657",
"t. c #BD8568",
"y. c #B4986B",
"u. c #B68B75",
"i. c #B49772",
"p. c #C49F5C",
"a. c #C6A15D",
"s. c #CF9367",
"d. c #DE9D73",
"f. c #E39F70",
"g. c #D4AC63",
"h. c #D3AE6F",
"j. c #DDB468",
"k. c #C7A670",
"l. c #E4BA6B",
"z. c #E8BB6A",
"x. c #E6A376",
"c. c #EDC26E",
"v. c #F0C26F",
"b. c #EEC370",
"n. c #F1C471",
"m. c #F3CA76",
"M. c #F6CD7A",
"N. c #F6D17D",
"B. c #F8D17E",
"V. c #3B4A89",
"C. c #285182",
"Z. c #374D93",
"A. c #3B559C",
"S. c #274DA5",
"D. c #3D6CA9",
"F. c #3E70B5",
"G. c #45659F",
"H. c #69688A",
"J. c #736683",
"K. c #737594",
"L. c #456CAA",
"P. c #4D70AD",
"I. c #817E8B",
"U. c #4186D7",
"Y. c #938A91",
"T. c #B98F81",
"R. c #8A8AA6",
"E. c #918FA6",
"W. c #9292AC",
"Q. c #9B9BBD",
"!. c #B48BA2",
"~. c #A69BB6",
"^. c #ABAAB8",
"/. c #CFA784",
"(. c #DAB38D",
"). c #F4BC92",
"_. c #C699B2",
"`. c #CCA2B1",
"'. c #C3B6BD",
"]. c #F7D581",
"[. c #F9D682",
"{. c #FDDD89",
"}. c #FCE18C",
"|. c #FFE692",
" X c #FFD1A4",
".X c #ACACCD",
"XX c #B2B2CC",
"oX c #ADB5D7",
"OX c #B3B4D6",
"+X c #B8B9DB",
"@X c #C3BDC5",
"#X c #C4C4D9",
"$X c #FBCCCB",
"%X c #C8CBE4",
"&X c #D8D8EC",
"*X c #C8D0F7",
"=X c #E7E7F7",
"-X c #E9E9F9",
";X c #EDF3FF",
":X c #F4F4FF",
">X c #F5FEFF",
/* pixels */
"c.b.b.b.b.b.c.b.b._ L G F L G L L L L L G L L ` b.b.n.n.n.m.c.c.",
"b.n.n.n.n.n.v.h.i.` H.H.K.K.J.^ ^ ^ ^ ^ ^ ^ ^ Q w.k.|.M.B.B.v.b.",
"b.n.n.n.n.M.N.3.G Q.+X:X:X>X$X-.9.9.9.9.9.9.q.=.  C M.z.N.m.n.c.",
"c.n.n.n.v.B.[.3.F XX&X=X=X:X'.p %.0.0.0.0.8.p p ' h m r.B.m.n.b.",
"b.n.n.n.n.v.M.3.F #X:X=X-X:X^.o $.9.0.0.0.8.  = 7.c   <.B.m.c.b.",
"b.n.n.n.n.y./ R.XX&X-X-X-X:X^.O $.9.0.0.+   Y r . & 0 & # g.n.b.",
"b.n.n.n.c.i.G H.E.&X-X-X-X;X^.i %.0.8.8.t = H 7   % q * % <.r.c.",
"b.n.n.n.n.i.( e . #X:X-X;X;X$X-.q.q.*.| @.o.      O 7 I R #   n.",
"b.n.n.n.n.i.( D ; ^.%X%X%X%X`.X.*.*.O. . .| c c v f 6 j R O . b.",
"b.m.n.n.b.e.) S > R.OX.X.XoX!.{ O.| O.O.O. .+.+.#.] 5 H Y O   b.",
"n.[.v.g.$ @ X w G Q.+X+X+XoX!...O.O.O.O.O.+.+.} 8 j I I R O   b.",
"n.z.p.w.@ @ @ w F K.W.R.W.oX!...O. .O.O.' ' } ] 7 r Y j j 2 4 b.",
"n.n.  @ Q V V a : .     o *X_.X.@.@.+.#..   T T R R R *   g.b.b.",
"b.n.&.Z 3 a B k d 9 3 $ > ) U y u u u u .   6 6 5 7 7 m A j.n.b.",
"c.n.n.l.  $ B N b V B 3 :                             e.N.n.n.b.",
"c.m.> > z z N N N N N l k ; 1 z 9 + 4.(.# . /./.(.5.f k.N.v.n.b.",
"c.n.> 2 z l k z N N b z k 1 a N s + u. X, $ ).).(.5.;.s.v.n.v.n.",
"c.n.c.a.      9 E V V , , E k ; ; . 1.x.:.n x.s.K 2.{.z.v.v.M.}.",
"n.n.n.j.Z Z Z g 8 3 3 s d d i ; h Z t.f.2.1.2.2.2.d.[.v.n.c.B.B.",
"c.n.n.n.b.c.n.C       N N : , $ ,.).f.d.x.x.b $.m.z.n.n.n.b.N.N.",
"b.n.n.n.n.n.n.g.p.a.a.$ O . . . = , B >.;.>.~._.n.n.n.n.n.n.B.N.",
"b.n.n.n.n.n.n.n.n.z.l.% X     X X   d K K ~ +X@Xn.n.v.v.n.n.v.c.",
"b.n.n.n.n.n.n.n.b.4   Z.Z.2 r ( / / e , Z.A.+X@Xv.M.}.B.v.n.n.c.",
"b.n.n.n.n.n.n.n.n.g % P P 8 D V.P V.H d V.A.I.Y.n.v.M.n.n.n.n.b.",
"c.n.n.n.n.n.n.n.n.C 0 F J 2 S S.S.S.! $.V.Z.g ! n.n.n.n.n.n.n.c.",
"n.n.n.n.n.n.n.n.n.M 7 D.G.b :.T.T.T.:.n L.F.0 E n.n.n.n.n.n.n.c.",
"b.n.n.n.n.n.n.n.n.C 0 F.P.W >.f.s.d.>.B D.F.q C n.v.n.n.n.n.n.M.",
"c.n.n.n.n.n.n.n.b.b.b.Z.A.U.P.n K K q 6   # n.n.v.v.v.n.n.n.v.}.",
"n.v.n.n.n.n.n.n.n.n.n.Y.K.C.) [ [ [ n x . @ v.n.[.[.B.v.n.n.v.M.",
"n.B.n.n.n.n.n.n.n.n.n.n.z.  - 6.#.#.#.6.+   n.n.N.M.M.v.n.v.[.].",
"m.}.v.n.n.n.n.n.n.n.n.c.m.y.A < < < < < <.e.n.n.n.{.}.N.c.c.M.M.",
"c.b.b.b.b.c.b.n.c.n.c.c.b.m.r..   X .   l.c.b.b.c.n.n.n.c.c.c.c."
};
